<svg id="Слой_1" data-name="Слой 1" xmlns="http://www.w3.org/2000/svg" xmlns:xlink="http://www.w3.org/1999/xlink" viewBox="0 0 100 20"><defs><style>.cls-1{fill:#b3936d;}.cls-2{fill:snow;}.cls-3{fill:#fff;}.cls-4{fill:#ffb600;}.cls-5{fill:#f7981d;}.cls-6{fill:#ff8500;}.cls-7{fill:#ff5050;}.cls-8{fill:#e52836;}.cls-9{fill:#cb2026;}.cls-10{fill:#dce5e5;}.cls-11{fill:#4db45e;}.cls-12{fill:url(#Безымянный_градиент_2);}</style><linearGradient id="Безымянный_градиент_2" x1="88.7" y1="15.54" x2="99" y2="15.54" gradientTransform="matrix(1, 0, 0, -1, 0, 22)" gradientUnits="userSpaceOnUse"><stop offset="0.3" stop-color="#00b4e6"/><stop offset="1" stop-color="#088ccb"/></linearGradient></defs><title>com</title><g id="g14"><path id="path2" class="cls-1" d="M30.67.91H2.33A1.3,1.3,0,0,0,1,2.19V17.72A1.3,1.3,0,0,0,2.33,19H30.67A1.3,1.3,0,0,0,32,17.72V2.19A1.3,1.3,0,0,0,30.67.91Zm-.86,16H3.19V3H29.81Z"/><path id="path4" class="cls-2" d="M21.05,13.16a.21.21,0,0,0,.17.09H22.7a.22.22,0,0,0,.2-.13c.18-.47.3-.76.34-.86h2.37c0,.18.15.64.19.83a.21.21,0,0,0,.2.16h1.3a.21.21,0,0,0,.2-.25L26.09,6.84a.2.2,0,0,0-.2-.16H24.62a.92.92,0,0,0-1,.55L21,13a.19.19,0,0,0,0,.19Zm3.71-4.71.12.57.43,1.9H23.77Z"/><path id="path6" class="cls-2" d="M16,12.94a6.23,6.23,0,0,0,1.83.28h0c1.88,0,3.1-.85,3.11-2.16,0-.73-.47-1.27-1.49-1.72-.63-.3-1-.49-1-.79s.35-.54,1-.54h.06a3.42,3.42,0,0,1,1.21.22.2.2,0,0,0,.17,0,.18.18,0,0,0,.1-.14l.17-1A.2.2,0,0,0,21,6.89a5.1,5.1,0,0,0-1.43-.21c-1.77,0-3,.86-3,2.09,0,.91.89,1.42,1.57,1.72s.92.51.92.79-.56.62-1.07.62a3.92,3.92,0,0,1-1.67-.33.22.22,0,0,0-.18,0,.22.22,0,0,0-.11.14l-.17,1A.19.19,0,0,0,16,12.94Z"/><path id="path8" class="cls-1" d="M5.63,7.05A6.07,6.07,0,0,1,8.44,8.94.21.21,0,0,0,8.6,9a.15.15,0,0,0,.09,0,.2.2,0,0,0,.12-.22L8.46,7.2h0a.75.75,0,0,0-.8-.52h-2a.2.2,0,0,0-.2.17.2.2,0,0,0,.13.22Z"/><path id="path10" class="cls-3" d="M12.81,13.17a.2.2,0,0,0,.16.07H14.4a.22.22,0,0,0,.21-.16L15.7,6.91a.22.22,0,0,0,0-.17.24.24,0,0,0-.16-.07H14.06a.21.21,0,0,0-.21.17L12.77,13A.18.18,0,0,0,12.81,13.17Z"/><path id="path12" class="cls-2" d="M7.09,8.09a.23.23,0,0,0-.25,0,.21.21,0,0,0-.08.22l1.45,4.78a.21.21,0,0,0,.2.15h1.67a.21.21,0,0,0,.19-.12L13,7a.19.19,0,0,0,0-.19.2.2,0,0,0-.17-.09H11.31a.21.21,0,0,0-.19.13L9.36,11.16l-.19-.66v0A7,7,0,0,0,7.09,8.09Z"/></g><path class="cls-4" d="M63,10a9,9,0,0,1-18,0h0a9,9,0,1,1,18,0Z"/><path class="cls-5" d="M54,1a9,9,0,0,1,9,9h0a9,9,0,0,1-18,0"/><path class="cls-6" d="M54,1a9,9,0,0,1,9,9h0a9,9,0,0,1-9,9"/><path class="cls-7" d="M41.9,1A9,9,0,0,0,42,19a9.11,9.11,0,0,0,6-2.33h0a8.18,8.18,0,0,0,.9-1H47.1a9.11,9.11,0,0,1-.67-.9h3.19a6.21,6.21,0,0,0,.52-1H45.9a6.4,6.4,0,0,1-.38-1h5A9.56,9.56,0,0,0,51,10.05a11.77,11.77,0,0,0-.19-1.91H45.24a6.61,6.61,0,0,1,.24-1h5a6.27,6.27,0,0,0-.38-1H45.86a8,8,0,0,1,.52-1h3.19a4.67,4.67,0,0,0-.71-1H47.1a7.65,7.65,0,0,1,.9-.9A8.76,8.76,0,0,0,42,1.1C42,1,42,1,41.9,1Z"/><path class="cls-8" d="M33,10a9,9,0,0,0,9,9,9.11,9.11,0,0,0,6-2.33h0a8.18,8.18,0,0,0,.9-1H47.1a9.11,9.11,0,0,1-.67-.9h3.19a6.21,6.21,0,0,0,.52-1H45.9a6.4,6.4,0,0,1-.38-1h5A9.56,9.56,0,0,0,51,10.05a11.77,11.77,0,0,0-.19-1.91H45.24a6.61,6.61,0,0,1,.24-1h5a6.27,6.27,0,0,0-.38-1H45.86a8,8,0,0,1,.52-1h3.19a4.67,4.67,0,0,0-.71-1H47.1a7.65,7.65,0,0,1,.9-.9A8.76,8.76,0,0,0,42,1.1H41.9"/><path class="cls-9" d="M42,19a9.11,9.11,0,0,0,6-2.33h0a8.18,8.18,0,0,0,.9-1H47.1a9.11,9.11,0,0,1-.67-.9h3.19a6.21,6.21,0,0,0,.52-1H45.9a6.4,6.4,0,0,1-.38-1h5A9.56,9.56,0,0,0,51,10.05a11.77,11.77,0,0,0-.19-1.91H45.24a6.61,6.61,0,0,1,.24-1h5a6.27,6.27,0,0,0-.38-1H45.86a8,8,0,0,1,.52-1h3.19a4.67,4.67,0,0,0-.71-1H47.1a7.65,7.65,0,0,1,.9-.9A8.76,8.76,0,0,0,42,1.1H41.9"/><path class="cls-3" d="M45.19,12.29l.14-.81a2.07,2.07,0,0,1-.23,0c-.34,0-.39-.19-.34-.28l.29-1.67h.52l.14-.9h-.47l.09-.57h-.95s-.57,3.14-.57,3.52a.71.71,0,0,0,.76.81A1.56,1.56,0,0,0,45.19,12.29Z"/><path class="cls-3" d="M45.52,10.76a1.52,1.52,0,0,0,1.67,1.67,2.54,2.54,0,0,0,1-.14l.19-.91a2.81,2.81,0,0,1-1,.24c-1.05,0-.86-.76-.86-.76h2a6.3,6.3,0,0,0,.14-.86,1.29,1.29,0,0,0-1.38-1.38C46.24,8.52,45.52,9.57,45.52,10.76Zm1.67-1.38c.52,0,.43.62.43.67h-1C46.57,10,46.67,9.38,47.19,9.38Z"/><path class="cls-3" d="M53.24,12.29l.19-1a2.36,2.36,0,0,1-.81.24c-.67,0-.95-.53-.95-1.1,0-1.14.57-1.76,1.23-1.76a1.61,1.61,0,0,1,.86.28l.14-1a3.43,3.43,0,0,0-1.09-.23c-1.1,0-2.19.95-2.19,2.76,0,1.19.57,2,1.71,2A4.45,4.45,0,0,0,53.24,12.29Z"/><path class="cls-3" d="M40,8.52a3.4,3.4,0,0,0-1.14.19l-.14.81a2.81,2.81,0,0,1,1-.19c.34,0,.62.05.62.34s0,.23,0,.23h-.43c-.81,0-1.72.34-1.72,1.43,0,.86.57,1.05.91,1.05a1.46,1.46,0,0,0,1-.43l0,.38h.86l.38-2.62A1.13,1.13,0,0,0,40,8.52Zm.19,2.15c0,.14-.09.9-.66.9a.37.37,0,0,1-.38-.38c0-.24.14-.57.85-.57A.81.81,0,0,0,40.14,10.67Z"/><path class="cls-3" d="M42.14,12.38a1.22,1.22,0,0,0,1.43-1.24c0-1.19-1.14-1-1.14-1.43,0-.23.19-.33.52-.33.15,0,.67,0,.67,0l.14-.86a3.76,3.76,0,0,0-.9-.09c-.72,0-1.43.28-1.43,1.23s1.19,1,1.19,1.43-.33.34-.57.34a3,3,0,0,1-.86-.15l-.14.86C41.1,12.29,41.33,12.38,42.14,12.38Z"/><path class="cls-3" d="M61.14,7.76,61,9.05a1.31,1.31,0,0,0-.9-.48c-.86,0-1.62,1-1.62,2.29,0,.76.38,1.57,1.19,1.57a1.26,1.26,0,0,0,.9-.38l0,.33h1l.71-4.57Zm-.43,2.53c0,.52-.23,1.19-.76,1.19-.33,0-.52-.29-.52-.77,0-.76.33-1.23.76-1.23S60.71,9.71,60.71,10.29Z"/><path class="cls-3" d="M34.76,12.33l.57-3.43.1,3.43h.67L37.33,8.9l-.52,3.43h1l.76-4.57H37l-1,2.81,0-2.81H34.62l-.76,4.57Z"/><path class="cls-3" d="M49.52,12.33c.29-1.57.34-2.85,1-2.62a3.75,3.75,0,0,1,.34-1.09h-.19c-.43,0-.77.57-.77.57l.1-.52h-.9l-.62,3.71h1Z"/><path class="cls-3" d="M55.43,8.52a3.33,3.33,0,0,0-1.14.19l-.15.81a2.84,2.84,0,0,1,1-.19c.33,0,.62.05.62.34s-.05.23-.05.23h-.43c-.81,0-1.71.34-1.71,1.43,0,.86.57,1.05.9,1.05a1.4,1.4,0,0,0,1-.43l0,.38h.85l.38-2.62A1.11,1.11,0,0,0,55.43,8.52Zm.24,2.15c0,.14-.1.9-.67.9a.37.37,0,0,1-.38-.38c0-.24.14-.57.86-.57C55.62,10.67,55.62,10.67,55.67,10.67Z"/><path class="cls-3" d="M57.52,12.33c.29-1.57.34-2.85,1-2.62a3.75,3.75,0,0,1,.34-1.09h-.19c-.43,0-.77.57-.77.57l.1-.52h-.9l-.62,3.71h1Z"/><path class="cls-10" d="M43.71,11.62a.72.72,0,0,0,.77.81,1.94,1.94,0,0,0,.71-.14l.14-.81a2.07,2.07,0,0,1-.23,0c-.34,0-.39-.19-.34-.28l.29-1.67h.52l.14-.9h-.47l.09-.57"/><path class="cls-10" d="M46,10.76c0,1.34.43,1.67,1.19,1.67a2.54,2.54,0,0,0,1-.14l.19-.91a2.81,2.81,0,0,1-1,.24c-1.05,0-.86-.76-.86-.76h2a6.3,6.3,0,0,0,.14-.86,1.29,1.29,0,0,0-1.38-1.38C46.24,8.52,46,9.57,46,10.76Zm1.19-1.38c.52,0,.62.62.62.67H46.57C46.57,10,46.67,9.38,47.19,9.38Z"/><path class="cls-10" d="M53.24,12.29l.19-1a2.36,2.36,0,0,1-.81.24c-.67,0-.95-.53-.95-1.1,0-1.14.57-1.76,1.23-1.76a1.61,1.61,0,0,1,.86.28l.14-1a3.43,3.43,0,0,0-1.09-.23c-1.1,0-1.71.95-1.71,2.76,0,1.19.09,2,1.23,2A4.45,4.45,0,0,0,53.24,12.29Z"/><path class="cls-10" d="M38.67,9.57a2.81,2.81,0,0,1,1-.19c.34,0,.62,0,.62.33a.43.43,0,0,1,0,.24h-.43c-.81,0-1.72.34-1.72,1.43,0,.86.57,1,.91,1a1.46,1.46,0,0,0,1-.43l0,.38h.86l.38-2.62c0-1.09-1-1.14-1.34-1.14m.72,2.05a1.56,1.56,0,0,1-1.14.9.37.37,0,0,1-.38-.38c0-.24.14-.57.85-.57A3.78,3.78,0,0,0,40.62,10.67Z"/><path class="cls-10" d="M41.1,12.29a4.17,4.17,0,0,0,1.09.09,1.22,1.22,0,0,0,1.43-1.24c0-1.19-1.14-1-1.14-1.43,0-.23.19-.33.52-.33.14,0,.67,0,.67,0l.14-.86a3.81,3.81,0,0,0-.91-.09c-.71,0-.95.28-.95,1.23s.72,1,.72,1.43-.34.34-.57.34"/><path class="cls-10" d="M61,9.05a1.31,1.31,0,0,0-.9-.48c-.86,0-1.15,1-1.15,2.29,0,.76-.09,1.57.72,1.57a1.26,1.26,0,0,0,.9-.38l0,.33h1l.71-4.57M60.9,10.29c0,.52-.42,1.19-.95,1.19-.33,0-.52-.29-.52-.77,0-.76.33-1.23.76-1.23A.72.72,0,0,1,60.9,10.29Z"/><path class="cls-10" d="M34.76,12.33l.57-3.43.1,3.43h.67L37.33,8.9l-.52,3.43h1l.76-4.57H37.38l-1.33,2.81,0-2.81h-.52l-1.62,4.57Z"/><path class="cls-10" d="M48.52,12.33h1c.29-1.57.34-2.85,1-2.62a3.75,3.75,0,0,1,.34-1.09h-.19c-.43,0-.77.57-.77.57l.1-.52"/><path class="cls-10" d="M54.14,9.57a2.84,2.84,0,0,1,1-.19c.33,0,.62,0,.62.33s-.05.24-.05.24h-.43c-.81,0-1.71.34-1.71,1.43,0,.86.57,1,.9,1a1.4,1.4,0,0,0,1-.43l0,.38h.85l.38-2.62c0-1.09-1-1.14-1.33-1.14m.72,2.05a1.58,1.58,0,0,1-1.15.9.38.38,0,0,1-.38-.38c0-.24.14-.57.86-.57A4,4,0,0,0,56.1,10.67Z"/><path class="cls-10" d="M56.52,12.33h1c.29-1.57.34-2.85,1-2.62a3.75,3.75,0,0,1,.34-1.09h-.19c-.43,0-.77.57-.77.57l.1-.52"/><g id="g5"><path id="path7" class="cls-11" d="M73.43,4h0A1.85,1.85,0,0,0,71.7,5.58C71.37,7,70.43,11,70.4,11.13h-.26s-1-4.09-1.29-5.56A1.86,1.86,0,0,0,67.11,4H64V16h3.11V8.87h.26L69.19,16h2.16l1.82-7.12h.26V16h3.12V4Z"/></g><g id="g9"><path id="path11" class="cls-11" d="M84.81,4a1.78,1.78,0,0,0-1.34,1.26l-2.21,5.87H81V4H77.89V16h2.94a1.79,1.79,0,0,0,1.38-1.26l2.17-5.87h.26V16h3.11V4Z"/></g><g id="g13"><path id="path15" class="cls-11" d="M89.14,9.45V16h3.11V12.17h3.38a3.48,3.48,0,0,0,3.18-2.72Z"/></g><g id="g17"><path id="path24" class="cls-12" d="M95.63,4H88.7a5.74,5.74,0,0,0,3.59,4.72h0a4.37,4.37,0,0,0,1.3.21h5.34A4.68,4.68,0,0,0,99,8.09C99,5.83,97.49,4,95.63,4Z"/></g></svg>