<svg version="1.2" baseProfile="tiny" id="_x31_" xmlns="http://www.w3.org/2000/svg" xmlns:xlink="http://www.w3.org/1999/xlink" x="0px" y="0px" viewBox="0 0 841.9 595.3" xml:space="preserve"><g><path fill-rule="evenodd" fill="#A68E6A" stroke="#000910" stroke-width="1.4173" stroke-miterlimit="22.9256" d="M486.2,162.4c-1.1-6-1-11.5,0.2-16.7c-33.2-5.8-93.2-6.5-131.4,1.1c1,5.4,1.3,10.9,0,16.3C399.3,140.8,439,136.9,486.2,162.4z"/><path fill-rule="evenodd" fill="#000910" stroke="#000910" stroke-width="1.4173" stroke-miterlimit="22.9256" d="M355,163.2c-0.4,0.2-0.9,0.3-1.1,0.5c-1,1,1.4,2,1.7,1.7c1.2-1.4,65.2-46.8,131.4,0.1c0.4,0.3,1.5-1.2,0.6-1.8c-0.3-0.1-0.7-0.5-0.7-0.5C444.1,135.8,397.4,140.3,355,163.2z"/><path fill-rule="evenodd" fill="#A68E6A" stroke="#000910" stroke-width="1.4173" stroke-miterlimit="22.9256" d="M451.9,136.9c1.8,1,5.7,1,7.6,0.4c-2.1-6.6-0.3-11.6,1.9-12.9c3.5-2.2,8.1,2.4,2.6,4.6c3.1,4.4,9.4,1.7,9.1-2.7c-0.2-3.8-7.4-9.3-15.1-3.3l0-2.7c7.8-4.7,6.3-12.1,0.4-21.2c-7,7.1-9.2,16.1-2.9,21.1l0,2.7c-4.9-5.6-10.8-4.6-13.6-1.6c-4,4.1-0.9,12.8,7.6,6.9c-5-0.6-2.8-4.7-0.1-5C453.3,122.7,458.4,125.9,451.9,136.9z"/><path fill-rule="evenodd" fill="#A68E6A" stroke="#000910" stroke-width="1.4173" stroke-miterlimit="22.9256" d="M414,136.3c1.7,1,7.1,0.9,9.7,0.2c-3-8.3-2.1-14.3,0.2-16.4c4.4-4,12.2,3,4.4,5.5c4,5.5,12,1.5,12.1-4.1c0-4.9-9.7-13.6-19.7-3.3l-0.1-3.5c9.9-5.9,6.4-17.3-1.4-28.7c-8.1,9.5-10.3,23.2-1.7,28.7l0.2,3.5c-6.3-6.9-14.4-5.7-17.7-1.8c-4.6,5.5-1.1,18,10.6,8.9c-6.8-0.6-4.4-6-0.5-6.4C414.1,118.7,420,122,414,136.3z"/><path fill-rule="evenodd" fill="#A68E6A" stroke="#000910" stroke-width="1.4173" stroke-miterlimit="22.9256" d="M388.8,137.1c-1.8,0.9-6.1,1-7.8,0.7c2-6.7,0.5-12.6-1.9-13.6c-3.9-1.7-8.5,4-2.1,5.3c-2.8,4.5-9.5,2.3-9.7-2c-0.2-3.8,7.3-10.1,15.1-4.1l-0.1-3.5c-7.8-4.7-6.4-12.2-0.6-21.5c7,7.1,9.3,16.2,3.1,21.4l-0.1,3.6c4.8-5.8,11.1-5.2,13.4-1.7c3.2,4.7-1.4,12.6-7.3,6.2c5-0.6,2.7-4.8,0.1-5.1C387.1,122.4,382.2,126.1,388.8,137.1z"/><path fill-rule="evenodd" fill="#A68E6A" stroke="#000910" stroke-width="1.4173" stroke-miterlimit="22.9256" d="M481.6,139.8c0.8,0.8,3.4,1.5,5.1,0.9c-1.3-5.1,0.3-9,1.9-10.1c3.6-2.6,7.5,3.5,1.7,3.6c2.1,3.5,8.8,2.4,8.2-1.6c-0.5-2.9-5.7-7.4-11.5-3.1l0.3-2.1c5.7-2.6,5.6-10.6,3.2-17.2c-4.8,3.4-7.8,13.7-5.1,16.7l-0.2,2.3c-3.3-4.5-8.6-3.9-10.8-1.8c-3.1,2.9-0.3,9.3,5.3,5.5c-3.7-0.7-1.7-4.2,0.3-4.2C482.9,128.8,485.8,131.6,481.6,139.8z"/><path fill-rule="evenodd" fill="#A68E6A" stroke="#000910" stroke-width="1.4173" stroke-miterlimit="22.9256" d="M359.4,140.1c-0.7,0.8-3.4,1.5-5.1,1c1.2-5.1-0.4-9-2-10.1c-3.7-2.5-7.4,3.6-1.7,3.6c-2,3.5-8.8,2.5-8.2-1.5c0.4-2.9,5.6-7.4,11.4-3.3l-0.3-2.1c-5.7-2.6-5.8-10.5-3.4-17.1c4.8,3.3,8,13.6,5.3,16.6l0.2,2.3c3.3-4.5,8.5-4,10.8-2c3.2,2.9,0.4,9.3-5.2,5.6c3.7-0.7,1.6-4.2-0.3-4.2C357.9,129.1,355,131.9,359.4,140.1z"/><polygon fill-rule="evenodd" fill="#A68E6A" stroke="#000910" stroke-width="1.4173" stroke-miterlimit="22.9256" points="419,63.7 421.5,68.3 424.1,73 421.6,77.6 419,82.3 416.5,77.7 413.9,72.9 416.4,68.4 "/><polygon fill-rule="evenodd" fill="#A68E6A" stroke="#000910" stroke-width="1.4173" stroke-miterlimit="22.9256" points="498.9,92.6 500.1,96 501.3,99.4 499.1,102.2 496.8,105 495.6,101.6 494.4,98.2 496.6,95.4 "/><polygon fill-rule="evenodd" fill="#A68E6A" stroke="#000910" stroke-width="1.4173" stroke-miterlimit="22.9256" points="375.8,72.9 378.5,77 381.3,81 379.3,85.5 377.3,90 374.5,85.9 371.7,81.9 373.7,77.4 "/><polygon fill-rule="evenodd" fill="#A68E6A" stroke="#000910" stroke-width="1.4173" stroke-miterlimit="22.9256" points="339.6,91.9 342.1,94.6 344.5,97.2 343.4,100.6 342.2,103.9 339.8,101.3 337.4,98.6 338.5,95.2 "/><path fill-rule="evenodd" fill="#A68E6A" stroke="#000910" stroke-width="1.4173" stroke-miterlimit="22.9256" d="M496.5,119.1c5.9-10.2,8.9-21.2,7.9-30.9c-1.2-11.3-9.5-19.2-24.1-20.9c18.1,9.1,17,27.5-1.3,48.8c13.6-24.1,17.9-43.6-6-46.9c2.3,18.2,0.7,28.7-6.4,40.2c6.2-20.4,13-73.7-26.4-58.2c25.2-2.5,13.2,39.6,4.2,58.7c3.8-16.3,17.5-77.8-16-48.6c3.3,14,5.9,26,2.2,41.1c-0.9-21-1.9-38.5-11.5-58.8c-9.2,21-11.7,37.8-11.4,58.4c-2.7-15.2-2.7-26.4,1.9-41c-20.7-15.6-25-3.4-21.9,20.4c1.2,8.8,3.9,16.1,6.3,27.9C381.8,83,375.7,48.7,398.5,52c-37.6-16.8-33.2,39.3-26.1,58.3c-8.4-13.5-8.9-26.4-7.7-41.1c-22.6,3.4-19,22-4,46.2c-21.4-22.2-19.4-40-1.7-47.5c-27.2,2.3-32.2,21.7-18,49.9c-4.6-5.9-7.5-10-9.2-15.4c-6.8-21.7,8.6-38.6,34-37.6c6.8-24.4,27-22,45.5-9c1.6-5.3,5.2-13.7,4.7-17.5c-1.7-14.2-17.3-1.8-6.4,0c-14.4,14.5-23-18.4,3.9-10.1l3.5-10l-12.2,4.2l0.2-11.7l12,4.6L412.4,3l12.2,0.1l-5,12.6l13.6-5.4l-0.4,12l-12.7-3.7l3.8,9.8c10.1-6.6,21,2.2,17.6,8.8c-3.1,6.1-10.6,6-12.9,0.9c8.2-1.2,1.1-9.7-3.9-5.7c-6.9,5.5-0.2,17.7,1.6,23.4c24.3-17,39.4-13.3,46.4,8.2c18.4-1.3,33.3,8.8,34.6,25C508.1,98.6,503.8,112.8,496.5,119.1z"/><polygon fill-rule="evenodd" fill="#A68E6A" stroke="#000910" stroke-width="1.4173" stroke-miterlimit="22.9256" points="344.8,74.9 344.8,76.4 344.8,77.6 343.4,78.1 342.1,78.5 342.1,77.1 342.1,75.9 343.5,75.4 "/><polygon fill-rule="evenodd" fill="#A68E6A" stroke="#000910" stroke-width="1.4173" stroke-miterlimit="22.9256" points="377.6,58.8 379.6,62 381.2,64.8 378.3,67.6 375.7,70 373.8,66.8 372.1,64.1 375.1,61.3 "/><polygon fill-rule="evenodd" fill="#A68E6A" stroke="#000910" stroke-width="1.4173" stroke-miterlimit="22.9256" points="383.9,51.7 383.9,53.8 383.9,55.6 381.5,56.2 379.4,56.7 379.4,54.6 379.4,52.8 381.8,52.2 "/><polygon fill-rule="evenodd" fill="#A68E6A" stroke="#000910" stroke-width="1.4173" stroke-miterlimit="22.9256" points="463.1,72.7 460.2,76.9 457.4,81.1 459.5,85.7 461.7,90.3 464.5,86.1 467.3,81.9 465.2,77.3 "/><polygon fill-rule="evenodd" fill="#A68E6A" stroke="#000910" stroke-width="1.4173" stroke-miterlimit="22.9256" points="460.9,58 459,61.3 457.3,64.2 460.4,67 463,69.5 465,66.2 466.7,63.3 463.6,60.5 "/><polygon fill-rule="evenodd" fill="#A68E6A" stroke="#000910" stroke-width="1.4173" stroke-miterlimit="22.9256" points="454.7,51.7 455,53.8 455.1,55.6 457.6,55.9 459.8,56.2 459.5,54.1 459.3,52.3 456.9,52 "/><polygon fill-rule="evenodd" fill="#A68E6A" stroke="#000910" stroke-width="1.4173" stroke-miterlimit="22.9256" points="498.5,81.5 497,83.7 495.6,85.5 497.4,87.8 498.9,89.8 500.4,87.6 501.8,85.7 500,83.5 "/><polygon fill-rule="evenodd" fill="#A68E6A" stroke="#000910" stroke-width="1.4173" stroke-miterlimit="22.9256" points="493.7,74.9 493.7,76.4 493.7,77.8 495.3,78.3 496.7,78.8 496.7,77.2 496.7,75.9 495.1,75.4 "/><path fill-rule="evenodd" fill="#A68E6A" stroke="#000910" stroke-width="1.4173" stroke-miterlimit="22.9256" d="M350.4,142.4c48.4-6.8,91.3-8.2,139.4-0.8c3.3,0.5,3.4,4.4-0.5,3.8c-46.5-7.2-84.3-5.7-137.9,1.4C347.8,147.4,346.7,142.9,350.4,142.4z"/><polygon fill-rule="evenodd" fill="#A68E6A" stroke="#000910" stroke-width="1.4173" stroke-miterlimit="22.9256" points="340.3,81.7 341.8,83.8 343.2,85.6 341.5,87.8 340,89.8 338.5,87.7 337.2,85.9 338.9,83.7 "/><polygon fill-rule="evenodd" fill="#A68E6A" stroke="#000910" stroke-width="1.4173" stroke-miterlimit="22.9256" points="418.6,52 419.7,54 420.9,56 419.7,58 418.6,60 417.5,58 416.3,56 417.5,54 "/><path fill-rule="evenodd" fill="#A68E6A" stroke="#000910" stroke-width="1.4173" stroke-miterlimit="22.9256" d="M359.4,140.1c-0.7,0.8-3.4,1.5-5.1,1c1.2-5.1-0.4-9-2-10.1c-3.7-2.5-7.4,3.6-1.7,3.6c-2,3.5-8.8,2.5-8.2-1.5c0.4-2.9,5.6-7.4,11.4-3.3l-0.3-2.1c-5.7-2.6-5.8-10.5-3.4-17.1c4.8,3.3,8,13.6,5.3,16.6l0.2,2.3c3.3-4.5,8.5-4,10.8-2c3.2,2.9,0.4,9.3-5.2,5.6c3.7-0.7,1.6-4.2-0.3-4.2C357.9,129.1,355,131.9,359.4,140.1z"/><polygon fill-rule="evenodd" fill="#A68E6A" stroke="#000910" stroke-width="1.4173" stroke-miterlimit="22.9256" points="375.8,72.9 378.5,77 381.3,81 379.3,85.5 377.3,90 374.5,85.9 371.7,81.9 373.7,77.4 "/><polygon fill-rule="evenodd" fill="#A68E6A" stroke="#000910" stroke-width="1.4173" stroke-miterlimit="22.9256" points="339.6,91.9 342.1,94.6 344.5,97.2 343.4,100.6 342.2,103.9 339.8,101.3 337.4,98.6 338.5,95.2 "/><polygon fill-rule="evenodd" fill="#A68E6A" stroke="#000910" stroke-width="1.4173" stroke-miterlimit="22.9256" points="344.8,74.9 344.8,76.4 344.8,77.6 343.4,78.1 342.1,78.5 342.1,77.1 342.1,75.9 343.5,75.4 "/><polygon fill-rule="evenodd" fill="#A68E6A" stroke="#000910" stroke-width="1.4173" stroke-miterlimit="22.9256" points="340.3,81.7 341.8,83.8 343.2,85.6 341.5,87.8 340,89.8 338.5,87.7 337.2,85.9 338.9,83.7 "/><rect x="422.8" y="81.8" fill-rule="evenodd" width="0" height="0"/><rect x="422.8" y="81.8" fill-rule="evenodd" fill="#A68E6A" width="0" height="0"/><rect x="422.8" y="81.8" fill-rule="evenodd" width="0" height="0"/><rect x="422.8" y="81.8" fill-rule="evenodd" fill="#A68E6A" width="0" height="0"/></g><g><path fill-rule="evenodd" fill="none" stroke="#000910" stroke-width="1.1339" stroke-miterlimit="22.9256" d="M524.8,400.1c3-5.8,11.3-5.8,13.6-1.6"/><path fill-rule="evenodd" fill="none" stroke="#000910" stroke-width="0.7087" stroke-miterlimit="22.9256" d="M556.5,412.2c2.6-1.5,5.1-6.6,5.1-10.1"/><path fill-rule="evenodd" fill="none" stroke="#000910" stroke-width="0.7087" stroke-miterlimit="22.9256" d="M562.3,395.3c-0.4-5.6-2.2-10.6-6.1-14.5"/><path fill-rule="evenodd" fill="none" stroke="#0F1823" stroke-width="1.4173" stroke-miterlimit="22.9256" d="M546.1,365.2c13,5.9,17.3,17.6,18.9,29.6"/><path fill-rule="evenodd" fill="none" stroke="#000910" stroke-width="1.4173" stroke-miterlimit="22.9256" d="M554.7,418.4c5.4-3.5,8.4-9.8,9-15.3"/><path fill-rule="evenodd" fill="none" stroke="#000910" stroke-width="1.1339" stroke-miterlimit="22.9256" d="M575.2,406.1c6.3-1.6,19.1,18.4,8.3,21.6"/><path fill-rule="evenodd" fill="none" stroke="#000910" stroke-width="1.1339" stroke-miterlimit="22.9256" d="M575.8,453.4c8.3-0.8,16.9-10.9,6.6-14.5"/><path fill-rule="evenodd" fill="none" stroke="#000910" stroke-width="1.1339" stroke-miterlimit="22.9256" d="M501.3,452.4c10.9,24.3,50.6,33,81.6,14.3"/><path fill-rule="evenodd" fill="none" stroke="#000910" stroke-width="0.7087" stroke-miterlimit="22.9256" d="M511.5,461.4c18,15.5,41.8,14.5,64.3,3.4"/><path fill-rule="evenodd" fill="none" stroke="#000910" stroke-width="0.7087" stroke-miterlimit="22.9256" d="M563.1,500c6.1,0,8-3.4,6.9-8.4"/><path fill-rule="evenodd" fill="none" stroke="#000910" stroke-width="0.8504" stroke-miterlimit="22.9256" d="M527.6,490.7c9.8,7.6,17.8,10.8,23,7.4"/><path fill-rule="evenodd" fill="none" stroke="#000910" stroke-width="1.5591" stroke-miterlimit="22.9256" d="M496.7,484.6c2.9-3,8.4-3.1,14,0c10.6,5.7,25.2,16.1,33.1,18.1c4.8,1.2,7.9,0.3,9-2.9"/><path fill-rule="evenodd" fill="none" stroke="#000910" stroke-width="0.5669" stroke-miterlimit="22.9256" d="M552.5,479.4c-1.7,4.5,0.3,6.4,3.7,7.2"/><path fill-rule="evenodd" fill="none" stroke="#000910" stroke-width="0.7087" stroke-miterlimit="22.9256" d="M563.2,479.3c-2.2,2.9,0.1,6,3.6,6.8"/><path fill-rule="evenodd" fill="none" stroke="#000910" stroke-width="0.7087" stroke-miterlimit="22.9256" d="M574.2,476.1c-2.4,5.3,3.3,9.5,6.9,8.5"/><path fill-rule="evenodd" fill="none" stroke="#000910" stroke-width="0.7087" stroke-miterlimit="22.9256" d="M587.5,470.2c-3.2,4.6,0.3,11.9,5.1,11.8"/><path fill-rule="evenodd" fill="none" stroke="#000910" stroke-width="1.1339" stroke-miterlimit="22.9256" d="M618.3,507.9c5.6,4.7,10.7,3.4,14.1-5.9"/><path fill-rule="evenodd" fill="none" stroke="#000910" stroke-width="1.1339" stroke-miterlimit="22.9256" d="M638.1,498.2c7.4-2.1,6.1-9.3,4.4-13.9c-1.4-3.6-4-6.2-7.6-7.5"/><path fill-rule="evenodd" fill="none" stroke="#000910" stroke-width="0.7087" stroke-miterlimit="22.9256" d="M632.2,463.8c2.1-0.3,9.9-4.8,6.5-10"/><path fill-rule="evenodd" fill="none" stroke="#000910" stroke-width="1.1339" stroke-miterlimit="22.9256" d="M640.2,450.4c5.6,5.7-0.1,15.1-12.8,19"/><path fill-rule="evenodd" fill="none" stroke="#000910" stroke-width="1.1339" stroke-miterlimit="22.9256" d="M642.9,442.6c3.6-0.6,4.2-7.4,0.9-9.6"/><path fill-rule="evenodd" fill="none" stroke="#000910" stroke-width="1.1339" stroke-miterlimit="22.9256" d="M623.8,414.6c-9.6,1.3-3.8,9.5,3,9.3"/><path fill-rule="evenodd" fill="none" stroke="#000910" stroke-width="0.7087" stroke-miterlimit="22.9256" d="M710.3,503.7c-2.9-5.8-5.1-8.3-9.5-12.2"/><path fill-rule="evenodd" fill="none" stroke="#000910" stroke-width="1.1339" stroke-miterlimit="22.9256" d="M694.4,485.3c7.6,2.4,12.7,8.5,18,17.6"/><path fill-rule="evenodd" fill="none" stroke="#000910" stroke-width="0.7087" stroke-miterlimit="22.9256" d="M645.4,471.2c11.2,0.1,20.5,2.6,28.5,6.5"/><path fill-rule="evenodd" fill="none" stroke="#000910" stroke-width="1.1339" stroke-miterlimit="22.9256" d="M682.1,475.5c-12.9-6.7-26.4-8.4-40.2-6.9"/><path fill-rule="evenodd" fill="none" stroke="#000910" stroke-width="0.7087" stroke-miterlimit="22.9256" d="M664.5,457.4c-4.8,0-9.5,0.3-13.9,1.2"/><path fill-rule="evenodd" fill="none" stroke="#000910" stroke-width="0.7087" stroke-miterlimit="22.9256" d="M696.1,538.8c-0.4,3.6-0.1,6.3,1.5,8.7"/><path fill-rule="evenodd" fill="none" stroke="#000910" stroke-width="0.7087" stroke-miterlimit="22.9256" d="M673.4,531c3.3-5,1.9-12.3-5.5-16.2"/><path fill-rule="evenodd" fill="none" stroke="#000910" stroke-width="1.1339" stroke-miterlimit="22.9256" d="M667.3,512c9.6,3,14.2,16.6,6.8,22.2"/><path fill-rule="evenodd" fill="none" stroke="#000910" stroke-width="1.1339" stroke-miterlimit="22.9256" d="M661.3,531.4c4.3-2.4,3.9-11.2-1.6-14.1"/><path fill-rule="evenodd" fill="none" stroke="#000910" stroke-width="1.1339" stroke-miterlimit="22.9256" d="M670.6,563.9c2.2,5.1,7.4,7.3,13.5,6.1"/><path fill-rule="evenodd" fill="none" stroke="#000910" stroke-width="1.1339" stroke-miterlimit="22.9256" d="M624.4,578.4c3.4-9.3,16.1-12.9,26.2-4.8"/><path fill-rule="evenodd" fill="none" stroke="#000910" stroke-width="0.7087" stroke-miterlimit="22.9256" d="M718,565.3c-3.2-1-6.2-2.2-8.5-4.3"/><path fill-rule="evenodd" fill="none" stroke="#000910" stroke-width="0.7087" stroke-miterlimit="22.9256" d="M734.3,567c4.9-0.1,9.8-1.7,14.6-4.7"/><path fill-rule="evenodd" fill="none" stroke="#000910" stroke-width="1.1339" stroke-miterlimit="22.9256" d="M732.4,569.4c6.1,0.6,14-2.4,19.4-6"/><path fill-rule="evenodd" fill="none" stroke="#000910" stroke-width="1.1339" stroke-miterlimit="22.9256" d="M745.5,535c0.4,4.4-1.1,7.7-6.4,9"/><path fill-rule="evenodd" fill="none" stroke="#000910" stroke-width="0.7087" stroke-miterlimit="22.9256" d="M773.5,551.5c6.7,5.9,15.7,9.3,24.2,8.4"/><path fill-rule="evenodd" fill="none" stroke="#000910" stroke-width="1.1339" stroke-miterlimit="22.9256" d="M762.9,540.3c13.9,13.1,27.2,19.4,40.6,15.6"/><path fill-rule="evenodd" fill="none" stroke="#000910" stroke-width="0.7087" stroke-miterlimit="22.9256" d="M767,533.5c2.6-6.2-1.5-23.1-7.9-29.6"/><path fill-rule="evenodd" fill="none" stroke="#000910" stroke-width="1.1339" stroke-miterlimit="22.9256" d="M756.1,497.7c9.4,6.9,17,23.2,14.1,38.9"/><path fill-rule="evenodd" fill="none" stroke="#000910" stroke-width="1.1339" stroke-miterlimit="22.9256" d="M809.3,530.1c2.1-7.9,15.8-5.8,19.9,5.2"/><path fill-rule="evenodd" fill="none" stroke="#000910" stroke-width="1.1339" stroke-miterlimit="22.9256" d="M693.8,536.8c-0.2,4.2,0.5,9.2,2.2,12.8"/><path fill-rule="evenodd" fill="none" stroke="#000910" stroke-width="1.1339" stroke-miterlimit="22.9256" d="M722.9,567.8c-4.1,0.9-12.3-3.3-14.5-5.6"/><path fill-rule="evenodd" fill="#A68E6A" stroke="#000910" stroke-width="0.2835" stroke-miterlimit="22.9256" d="M727.3,470.8c-25.7-13.3-58.2-18.1-81.3-11.9c0.2-0.6,0.4-1.3,0.6-2c6.6-2.8,16.3-3.7,23.5-3.8c26.9-0.4,53,9.2,73.1,23.4c22.8,16.2,37.6,40,32.8,68.7c-5.1-4.4-9-7.4-14.4-11.2c-3.3-23.9-18.5-42.8-38.3-54.7c-3-1.8-6.1-3.4-9.3-4.9c-12.4-5.7-43.1-12.6-65.4-11.8c-1.6-0.3-2.9-0.5-3.9-0.6c21.9-1.6,51.7,1.2,68.7,8.7c34.7,15.2,48.1,38.6,51.4,63.1l9.2,7.2C777.1,507.5,755,485.1,727.3,470.8z"/><path fill-rule="evenodd" fill="#A68E6A" stroke="#0F1823" stroke-width="0.2835" stroke-miterlimit="22.9256" d="M611.5,470.1c10.9,6.2,27.7-1.5,33.4-11.3c2.6-4.4,2.4-8.8-1.4-12.9c-0.7-0.4-0.7-1.8,0.7-1.9c0.4,0,2.1-0.7,3.2-1.9c4.6-4.8,2.7-10.2-2.7-12c-6.9-2.2-17.3-0.1-20,0.4c-5.8,12.4-19.5,19.8-36.5,20.4c-8.8,8.8-20.6,12.5-33.2,14.2c-74,9.9-81.7-82.4-33.3-98.4c6.8-2.3,14.4-0.5,20.5,2.4c13.3,6.4,20.4,23.5,6.7,37.6c0.1,4.2-3,4.8-2.1,2.8c1.8-4.1,0-6.2-5.7-7.4c-7.1-1.5-8.6,7.8-0.1,10.2c1.5,0.4,2.1,0.4,2.1,1.4c0,4.6-15,0.4-9.5-10.4c1.7-3.4,5.4-4.6,9.7-4.2c-4.5-10-20.4-7.7-22.3,4.4c-0.5,3.4-0.5,7.9,2,12.5c1.9,3.4,4.9,5.4,7.9,6.9c6.6,3.3,14.6,2.7,21.9-0.9c6.8-3.4,12.1-10.3,14.2-18.2c-1.9-2.2-5.4-3.1-6.6-4.2c-0.4-0.3-0.2-1.8,1-2.8c1.2-0.9,3.5-1.3,6.2-1.5c0.1-16.8-9.5-29.6-21.4-35.2c-6.9-3.2-15.2-4.7-21.2-3.8c-10.1,1.4-31.3,7.8-33.6,20.8c3-2.5,5.8-4.5,11.3-6.1c1.3-0.4,1,1.7-1,2.6c-25.4,11-29.4,46.8-15.9,71.2l-0.9-5.6c-0.3-1.9,0.9-4.2,1.2-2.3c2.9,15.4,10.1,26.1,19.3,34.3c12,10.6,27.6,16.2,44.2,17c6.1,0.8,14,0.7,21.6,0.1c17.5-1.5,36-4.6,48.2-1.2c7.4,4.3,6.6,12.1,0.6,16.6c-2.2,1.7-5.6,2-8.8,0.9c0.3,9,16.4,13,22.7,2.9c1.4-2.5,2.9-4.2,4.5-5.3c12.4-3.4,12.1-21.9-2.7-31.5c-8.9,4.9-17.3,6.7-24.6,2.8c-11.4,4.9-19.3,6.6-18.4,0.3C593.8,466.3,602.8,466.1,611.5,470.1z"/><path fill-rule="evenodd" fill="#A68E6A" stroke="#0F1823" stroke-width="0.2835" stroke-miterlimit="22.9256" d="M559.9,440.3c12.8-4.6,18.8-24,8.9-35c-6.4,19-23.8,26.6-36.6,21.7c-18.5-7.1-16.2-28.8-5.5-35.1c7.5-4.4,20.7-0.7,18.5,8c1.5,0.7,2.8,1.7,3.2,3.7c6.8-7.5,0.7-18.9-9-24.9c-4.1-2.5-9.9-2.8-15-1.7c-6.6,1.4-10.6,5.7-13.5,11c-7.1,12.7-5.3,32.6,2.4,42.8C524.8,446.1,540.8,448.1,559.9,440.3z"/><path fill-rule="evenodd" fill="#A68E6A" stroke="#0F1823" stroke-width="0.2835" stroke-miterlimit="22.9256" d="M573.5,429.8c-14.1,22.6-48,27-63.7,3.3c-5.5-9.3-6.8-18.5-6.4-26.8c0.5-11.2,4.7-21.4,11.6-27.1c11.3-9.3,24.8-7.2,33.6,4.4c2.2,3,3.6,6.8,5.2,11c1.9-9.6-4.1-19.7-11.8-23.3c-15.1-7-30.4,1.8-39.6,14.2c-21.7,29.4-1.4,67.2,30.9,74.8c23.2,5.4,36.9-1.3,49.9-7.7c6.5-3.2,10.5-11.7-0.6-18.4c-0.9-2.2-0.8-3.6,1.4-4.2c13.9-3.8,7-33.3-17.2-31.5C576.1,407.2,578.8,417.5,573.5,429.8z"/><path fill-rule="evenodd" fill="#A68E6A" stroke="#0F1823" stroke-width="0.2835" stroke-miterlimit="22.9256" d="M624.7,430.5c-5.8,12.4-19.5,19.8-36.5,20.4c-8.8,8.8-20.6,12.5-33.2,14.2c-74,9.9-81.7-82.4-33.3-98.4c6.8-2.3,14.4-0.5,20.5,2.4c13.3,6.4,20.4,23.5,6.7,37.6c0.1,4.2-3,4.8-2.1,2.8c1.8-4.1,0-6.2-5.7-7.4c-7.1-1.5-8.6,7.8-0.1,10.2c1.5,0.4,2.1,0.4,2.1,1.4c0,4.6-15,0.4-9.5-10.4c1.7-3.4,5.4-4.6,9.7-4.2c-4.5-10-20.4-7.7-22.3,4.4c-0.5,3.4-0.5,7.9,2,12.5c1.9,3.4,4.9,5.4,7.9,6.9c6.6,3.3,14.6,2.7,21.9-0.9c6.8-3.4,12.1-10.3,14.2-18.2c-1.9-2.2-5.4-3.1-6.6-4.2c-0.4-0.3-0.2-1.8,1-2.8c1.2-0.9,3.5-1.3,6.2-1.5c0.1-16.8-9.5-29.6-21.4-35.2c-6.9-3.2-15.2-4.7-21.2-3.8c-10.1,1.4-31.3,7.8-33.6,20.8c3-2.5,5.8-4.5,11.3-6.1c1.3-0.4,1,1.7-1,2.6c-25.4,11-29.4,46.8-15.9,71.2l-0.9-5.6c-0.3-1.9,0.9-4.2,1.2-2.3c2.9,15.4,10.1,26.1,19.3,34.3c12,10.6,27.6,16.2,44.2,17c6.1,0.8,14,0.7,21.6,0.1c17.5-1.5,36-4.6,48.2-1.2c7.4,4.3,6.6,12.1,0.6,16.6c-2.2,1.7-5.6,2-8.8,0.9c0.3,9,16.4,13,22.7,2.9c1.4-2.5,2.9-4.2,4.5-5.3c12.4-3.4,12.1-21.9-2.7-31.5c-8.9,4.9-17.3,6.7-24.6,2.8c-11.4,4.9-19.3,6.6-18.4,0.3c1.2-7.1,10.2-7.3,18.9-3.3c10.9,6.2,27.7-1.5,33.4-11.3c2.6-4.4,2.4-8.8-1.4-12.9c-0.7-0.4-0.7-1.8,0.7-1.9c0.4,0,2.1-0.7,3.2-1.9c4.6-4.8,2.7-10.2-2.7-12C637.9,427.9,627.4,430.1,624.7,430.5z"/><path fill-rule="evenodd" fill="#A68E6A" stroke="#000910" stroke-width="0.2835" stroke-miterlimit="22.9256" d="M630,426.7c8-0.7,15.6-0.8,20.6,2.9c-4.2-22.8-33.6-25.6-36.3-12C613.5,421.4,621.2,426.2,630,426.7z"/><path fill-rule="evenodd" fill="#A68E6A" stroke="#000910" stroke-width="0.2835" stroke-miterlimit="22.9256" d="M572.8,491.2c-26.1,3.4-54.3-3.2-65.3-15c-13.5-0.1-17.7,7.6-12.2,15.7c2.3-5.1,6.5-7.7,13.9-5.6c19.1,7.2,41.8,31.8,47.5,15.1c0.2-0.6,0.7-0.6,1.1-0.2c0.9,0.9,2,1.3,3,1.8c2.9,1.3,5.9,0.9,8.1-0.8C571.9,500.2,573.5,498.6,572.8,491.2z"/><path fill-rule="evenodd" fill="#A68E6A" stroke="#000910" stroke-width="0.2835" stroke-miterlimit="22.9256" d="M646.9,476c9.9,1,27.5,4.3,40,11.5c9.3,5.4,14.9,12.6,18.4,19.6c3.4-1.7,7-2.8,10.6-3.3c-3.6-12.5-14.1-26.1-30-34.1c-15.6-7.8-33.2-8.8-44.6-3.8l-1.8,1.6l0,0l0,0C642.4,469.7,644.8,472.8,646.9,476L646.9,476z"/><path fill-rule="evenodd" fill="#A68E6A" stroke="#000910" stroke-width="0.2835" stroke-miterlimit="22.9256" d="M673,462.2c15.1,1.2,30.1,4,40.4,8.5c34.1,15,47.7,37.8,51.2,62l9.4,7.4c2.6-33-19.3-55-46.7-69.2c-25.4-13.1-57.3-18-80.4-12.1c-0.2,0.4-0.4,0.7-0.6,1.1c-0.2,0.4-0.7,1-1.3,1.8C653.7,459.5,663.5,459.8,673,462.2z"/><path fill-rule="evenodd" fill="#A68E6A" stroke="#000910" stroke-width="0.2835" stroke-miterlimit="22.9256" d="M755.9,528.6c-14.9-14.8-25.9-22-36.4-22.3c-22.8-0.8-35.4,25.8-23.2,45.9c2.5-2.3,4-4.5,5.5-7c-3.6-21.8,7.8-30.4,19.5-27.8c11.4,1.9,26.9,19.1,11.7,26c5.2,4.9,12.5,2,15-4c1.1-2.7-0.5-6.1,1.4-6.2c0.5,0,0.4,5.4,0.5,6c0.8,1.6,1.5,1.4,4,6.8c2.5,5.5,8.3,21.3,13.7,27.3c3,3.3,6.5,4.2,9.2,2.2l-7.3-7.5c-2-2.1-1-3.7,0.6-1.9c2.6,3,6.6,6.6,11.3,9.4c7.9,4.6,16.8,5.1,21.4-1.5c-5-0.3-9.7-1.7-14.2-4.4c-1.2-0.7-0.8-2.2,0.9-1.3c1.7,0.9,5.1,2.4,8.9,3c7.5,1.2,16.6,0,17.2-7.8c-4.6,2.2-8.7,2.8-13.5,2.3c-1-0.1-1.1-1.7,0.2-1.8c11.8-0.6,23.3-6.4,28.3-17.9c4.1-9.4,1.2-15.9-2.8-19.9c-7-7-19.8-5.5-20.4,3.3c-0.3,4.9,5.8,9.1,14.3,1.9c9.4,7.4-0.2,19.9-12.9,23.9c-0.5,0.2-1.1-0.6,0.1-1.1c10.7-4.6,16.9-12.4,12.3-18.5c-2.1,7.6-5.2,9.9-9.1,12.5c-7.9,5.3-19,4.9-30.3,0.3c-5.7-2.4-13.7-8.9-19.8-14.3c-0.1-0.1-0.3-0.2-0.4-0.3c0,0,0-0.1,0-0.1C759.3,531.9,757.3,530,755.9,528.6z"/><path fill-rule="evenodd" fill="#A68E6A" stroke="#000910" stroke-width="0.2835" stroke-miterlimit="22.9256" d="M717.6,538.1c1.7-7.1,2.3-12.2,2.2-17.7c-3.1-1.8-9.4,0.4-11.2,2c1.2,2.6-0.4,13.4-3.3,19.9c-3.4,7.5-7.7,12.5-14.2,17.4c-3.4,2.6-6.2,2.7-7.3,3.8c-1,1,1.8,1.3,5.2,1.3c3.6,0,7.8-1.8,8.8-2.3c3-1.5,6.2-4.2,8.1-6c1.2-1.1,1.5-1.8,1.9-1.5c0.7,0.5-1.2,2.1-3.1,4.1c-2.3,2.6-6.8,5.5-11.3,7.1c-8.1,2.9-17.4,2.2-21.9-7.2c-2.7-5.6-9.7,6.1-2.9,13c0.8,0.8,0.6,1.8,0.6,1.8c-4.8,4.9-18.6-5.6-23.8-7.4c-2.8-1-6.2-0.9-7.9-0.7c-11.2,1.6-16.1,9.5-13.4,17.4c0.5,1.5,0.3,2.6,3.2-0.5c4.6-4.8,15.7-7.2,22-7.3c4.5,0,8.5,0.7,11.9,0.9c7,0.5,12.3,0.5,17.8-0.3c5.9-0.9,12-3.2,20.5-9.7C708.9,559,715.2,548,717.6,538.1z"/><path fill-rule="evenodd" fill="#A68E6A" stroke="#000910" stroke-width="0.2835" stroke-miterlimit="22.9256" d="M666.3,532.6c2.1,8.5,20,5,12.7-15c-1.6-4.4-5-7-8.5-8.9c-17.1-9.1-41.1,2.6-42.6,26c-0.5,7.9,2.4,17.2,8,27.5c10.6-1.9,18.1,7.7,28.5,9.9c-0.9-2.3-1.3-4.3-1.2-6.7c-5.2,0.2-8.4-1.4-11.7-3c-4.7-2.4-9-6.1-11.1-10.3c-3.7-7.4-4.6-15.9-1.5-22.8c3.5-8,11-13,15.3-6.9c1.6,2.2,1.7,4.6,2.2,6.4c1.5,4.8,3.6,6.3,7.5,2.9c3-2.6,4.8-7.9,1.1-13.3c-1.4-2-0.3-2.8,1.1-1.2C670,521.9,669.4,527.5,666.3,532.6z"/><path fill-rule="evenodd" fill="#A68E6A" stroke="#000910" stroke-width="0.2835" stroke-miterlimit="22.9256" d="M754.1,552.6c-14.4,13.1-30,14.3-44,5.2l-4.9,6.1c17.5,12,35.3,9.6,53.3-0.5L754.1,552.6z"/><path fill-rule="evenodd" fill="none" stroke="#000910" stroke-width="1.4173" stroke-miterlimit="22.9256" d="M524.8,400.1c3-5.8,11.3-5.8,13.6-1.6"/><path fill-rule="evenodd" fill="none" stroke="#000910" stroke-width="1.4173" stroke-miterlimit="22.9256" d="M556.5,412.2c2.6-1.5,5.1-6.6,5.1-10.1"/><path fill-rule="evenodd" fill="none" stroke="#000910" stroke-width="1.4173" stroke-miterlimit="22.9256" d="M562.3,395.3c-0.4-5.6-2.2-10.6-6.1-14.5"/><path fill-rule="evenodd" fill="none" stroke="#000910" stroke-width="1.4173" stroke-miterlimit="22.9256" d="M546.1,365.2c13,5.9,17.3,17.6,18.9,29.6"/><path fill-rule="evenodd" fill="none" stroke="#000910" stroke-width="1.4173" stroke-miterlimit="22.9256" d="M554.7,418.4c5.4-3.5,8.4-9.8,9-15.3"/><path fill-rule="evenodd" fill="none" stroke="#000910" stroke-width="1.4173" stroke-miterlimit="22.9256" d="M575.4,403.1c6.3-1.6,19.1,18.4,8.3,21.6"/><path fill-rule="evenodd" fill="none" stroke="#000910" stroke-width="1.4173" stroke-miterlimit="22.9256" d="M575.8,453.4c8.3-0.8,16.9-10.9,6.6-14.5"/><path fill-rule="evenodd" fill="none" stroke="#000910" stroke-width="1.4173" stroke-miterlimit="22.9256" d="M501.3,452.4c10.9,24.3,50.6,33,81.6,14.3"/><path fill-rule="evenodd" fill="none" stroke="#000910" stroke-width="1.4173" stroke-miterlimit="22.9256" d="M511.5,461.4c18,15.5,41.8,14.5,64.3,3.4"/><path fill-rule="evenodd" fill="none" stroke="#000910" stroke-width="1.4173" stroke-miterlimit="22.9256" d="M563.1,500c6.1,0,8-3.4,6.9-8.4"/><path fill-rule="evenodd" fill="none" stroke="#000910" stroke-width="1.4173" stroke-miterlimit="22.9256" d="M527.6,490.7c9.8,7.6,17.8,10.8,23,7.4"/><path fill-rule="evenodd" fill="none" stroke="#000910" stroke-width="1.5591" stroke-miterlimit="22.9256" d="M496.7,484.6c2.9-3,8.4-3.1,14,0c10.6,5.7,25.2,16.1,33.1,18.1c4.8,1.2,7.9,0.3,9-2.9"/><path fill-rule="evenodd" fill="none" stroke="#000910" stroke-width="1.4173" stroke-miterlimit="22.9256" d="M552.5,479.4c-1.7,4.5,0.3,6.4,3.7,7.2"/><path fill-rule="evenodd" fill="none" stroke="#000910" stroke-width="1.4173" stroke-miterlimit="22.9256" d="M563.2,479.3c-2.2,2.9,0.1,6,3.6,6.8"/><path fill-rule="evenodd" fill="none" stroke="#000910" stroke-width="1.4173" stroke-miterlimit="22.9256" d="M574.2,476.1c-2.4,5.3,3.3,9.5,6.9,8.5"/><path fill-rule="evenodd" fill="none" stroke="#000910" stroke-width="1.4173" stroke-miterlimit="22.9256" d="M587.5,470.2c-3.2,4.6,0.3,11.9,5.1,11.8"/><path fill-rule="evenodd" fill="none" stroke="#000910" stroke-width="1.4173" stroke-miterlimit="22.9256" d="M618.3,507.9c5.6,4.7,10.7,3.4,14.1-5.9"/><path fill-rule="evenodd" fill="none" stroke="#000910" stroke-width="1.4173" stroke-miterlimit="22.9256" d="M638.1,498.2c7.4-2.1,6.1-9.3,4.4-13.9c-1.4-3.6-4-6.2-7.6-7.5"/><path fill-rule="evenodd" fill="none" stroke="#000910" stroke-width="0.7087" stroke-miterlimit="22.9256" d="M632.2,463.8c2.1-0.3,9.9-4.8,6.5-10"/><path fill-rule="evenodd" fill="none" stroke="#000910" stroke-width="1.1339" stroke-miterlimit="22.9256" d="M640.2,450.4c5.6,5.7-0.1,15.1-12.8,19"/><path fill-rule="evenodd" fill="none" stroke="#000910" stroke-width="1.4173" stroke-miterlimit="22.9256" d="M642.9,442.6c3.6-0.6,4.2-7.4,0.9-9.6"/><path fill-rule="evenodd" fill="none" stroke="#000910" stroke-width="1.4173" stroke-miterlimit="22.9256" d="M623.8,414.6c-9.6,1.3-3.8,9.5,3,9.3"/><path fill-rule="evenodd" fill="none" stroke="#000910" stroke-width="0.7087" stroke-miterlimit="22.9256" d="M710.3,503.7c-2.9-5.8-5.1-8.3-9.5-12.2"/><path fill-rule="evenodd" fill="none" stroke="#000910" stroke-width="1.1339" stroke-miterlimit="22.9256" d="M694.4,485.3c7.6,2.4,12.7,8.5,18,17.6"/><path fill-rule="evenodd" fill="none" stroke="#000910" stroke-width="1.4173" stroke-miterlimit="22.9256" d="M645.4,471.2c11.2,0.1,20.5,2.6,28.5,6.5"/><path fill-rule="evenodd" fill="none" stroke="#000910" stroke-width="1.4173" stroke-miterlimit="22.9256" d="M682.1,475.5c-12.9-6.7-26.4-8.4-40.2-6.9"/><path fill-rule="evenodd" fill="none" stroke="#000910" stroke-width="1.4173" stroke-miterlimit="22.9256" d="M664.4,458.1c-4.8,0-9.5,0.3-13.9,1.2"/><path fill-rule="evenodd" fill="none" stroke="#000910" stroke-width="0.7087" stroke-miterlimit="22.9256" d="M696.1,538.8c-0.4,3.6-0.1,6.3,1.5,8.7"/><path fill-rule="evenodd" fill="none" stroke="#000910" stroke-width="1.4173" stroke-miterlimit="22.9256" d="M673.4,531c3.3-5,1.9-12.3-5.5-16.2"/><path fill-rule="evenodd" fill="none" stroke="#000910" stroke-width="1.4173" stroke-miterlimit="22.9256" d="M667.3,512c9.6,3,14.2,16.6,6.8,22.2"/><path fill-rule="evenodd" fill="none" stroke="#000910" stroke-width="1.4173" stroke-miterlimit="22.9256" d="M661.3,531.4c4.3-2.4,3.9-11.2-1.6-14.1"/><path fill-rule="evenodd" fill="none" stroke="#000910" stroke-width="1.4173" stroke-miterlimit="22.9256" d="M670.6,563.9c2.2,5.1,7.4,7.3,13.5,6.1"/><path fill-rule="evenodd" fill="none" stroke="#000910" stroke-width="1.4173" stroke-miterlimit="22.9256" d="M624.4,578.4c3.4-9.3,16.1-12.9,26.2-4.8"/><path fill-rule="evenodd" fill="none" stroke="#000910" stroke-width="0.7087" stroke-miterlimit="22.9256" d="M718,565.3c-3.2-1-6.2-2.2-8.5-4.3"/><path fill-rule="evenodd" fill="none" stroke="#000910" stroke-width="1.4173" stroke-miterlimit="22.9256" d="M734.3,567c4.9-0.1,9.8-1.7,14.6-4.7"/><path fill-rule="evenodd" fill="none" stroke="#000910" stroke-width="1.4173" stroke-miterlimit="22.9256" d="M732.4,569.4c6.1,0.6,14-2.4,19.4-6"/><path fill-rule="evenodd" fill="none" stroke="#000910" stroke-width="1.4173" stroke-miterlimit="22.9256" d="M745.5,535c0.4,4.4-1.1,7.7-6.4,9"/><path fill-rule="evenodd" fill="none" stroke="#000910" stroke-width="1.4173" stroke-miterlimit="22.9256" d="M773.5,551.5c6.7,5.9,15.7,9.3,24.2,8.4"/><path fill-rule="evenodd" fill="none" stroke="#000910" stroke-width="1.4173" stroke-miterlimit="22.9256" d="M762.9,540.3c13.9,13.1,27.2,19.4,40.6,15.6"/><path fill-rule="evenodd" fill="none" stroke="#000910" stroke-width="1.4173" stroke-miterlimit="22.9256" d="M767,533.5c2.6-6.2-1.5-23.1-7.9-29.6"/><path fill-rule="evenodd" fill="none" stroke="#000910" stroke-width="1.4173" stroke-miterlimit="22.9256" d="M756.1,497.7c9.4,6.9,17,23.2,14.1,38.9"/><path fill-rule="evenodd" fill="none" stroke="#000910" stroke-width="1.4173" stroke-miterlimit="22.9256" d="M809.3,530.1c2.1-7.9,15.8-5.8,19.9,5.2"/><path fill-rule="evenodd" fill="none" stroke="#000910" stroke-width="1.1339" stroke-miterlimit="22.9256" d="M693.8,536.8c-0.2,4.2,0.5,9.2,2.2,12.8"/><path fill-rule="evenodd" fill="none" stroke="#000910" stroke-width="1.1339" stroke-miterlimit="22.9256" d="M722.9,567.8c-4.1,0.9-12.3-3.3-14.5-5.6"/><path fill-rule="evenodd" fill="#000910" stroke="#000910" stroke-width="0.2835" stroke-miterlimit="22.9256" d="M620.7,426.5c-7.2-1.7-10.1-6.5-8.2-11.1c3.7-8.9,14.2-8.3,21.2-7.2c14.8,4.2,26.8,22.1,13.6,34.6c-1.2,1.3-0.6,1.4,0,2.5c2.6,4.3,1.4,10.7-0.9,14.6c-0.2,0.4-0.7,1-1.3,1.8c26.5-6,62.6,8.7,73.7,41.8c13.3,0.4,27.8,10.3,43.1,26.5c0.7,0.6,1.9,2.1,2.6,2.7l11.9,9.3c19.9,15.6,40.7,6,42.8-4.9c-13.8,6.1-16.2-4.9-13.1-11.9c3.8-9,21.5-8.9,26.3,0.8c5.2,10.6,4.3,23.5-14.3,36.9c-1.2,5.6-4.7,9.7-12.3,11.1c-5.2,8.3-14.8,10.7-26.3,2.8c-6.4,7.7-15.6-0.6-19.9-11.5c-21.1,12.8-38.8,13.6-56.7,1.5c-13.1,12.1-29.6,14.5-46.4,12.9c-12.3-1.2-24.7,0.8-32.6,9.5c-5.8-7.1-2.3-21.6,9.9-26.3c-5.7-7.8-7.4-15.9-7.7-23.2c-0.5-10.6,3-19.9,9.7-26.8c7.6-7.7,18.3-11.2,27.8-9.8c8.5,1.2,17.3,5.7,19.9,17.9c4.2,19.3-16.3,23.8-19.3,14.1c-4.1,3.7-8.1,2.7-9.8-4.4c-3.1-14.1-15.7-4.9-15.5,6.1c0.2,13.9,11.5,24.4,24.9,25.4c1-4.4,3.6-7.5,8.8-8.7c0.4,3.6,2.6,6.3,5.7,8.5c6.2-0.5,11.3-3.5,15.7-7.6c-8.7-13.9-5.5-33.2,8.3-45.4c-8.1-18-26.5-27-54-29.5c1.6,4.7,1.7,9.5,0.6,14c-1.3,5-3.8,9.7-10.7,11.6c-6,8.6-8.5,10.2-13.1,11.2c-11.5,2.4-18.8-6-16.7-13.9c0.3-1.1,1.1-2.5,2.1-3.2c13.7,8,15.6-9.2,3.4-9.8c-12.6-1-25.6,0.3-38.6,1.8c-0.5,14.9-11.7,18.3-18.5,13.9c-3.4,7.3-11.6,6.4-17.5,3.2c-18.2-9.4-37.5-27.1-42.5-15.4c-1.1,3.7-2.8,4.4-4.3,1.5c-4.8-9.2-1.2-18.1,10.7-21.3c-6.2-5.1-11.1-11.3-14.2-19c-14.6-9.2-20.4-50.1-0.4-74.1c-1.2-27.4,77.5-47.6,81.7,14.8c6.5,0.2,13,2.3,17.4,7.3c7.2,8.3,9,22-1.3,30c4.8,5.7,6.7,11.1,3.6,16.8c15.9-2.4,27.6-10.3,33.7-21.2L620.7,426.5L620.7,426.5z M624.7,430.5c-5.8,12.4-19.5,19.8-36.5,20.4c-8.8,8.8-20.6,12.5-33.2,14.2c-74,9.9-81.7-82.4-33.3-98.4c6.8-2.3,14.4-0.5,20.5,2.4c13.3,6.4,20.4,23.5,6.7,37.6c0.1,4.2-3,4.8-2.1,2.8c1.8-4.1,0-6.2-5.7-7.4c-7.1-1.5-8.6,7.8-0.1,10.2c1.5,0.4,2.1,0.4,2.1,1.4c0,4.6-15,0.4-9.5-10.4c1.7-3.4,5.4-4.6,9.7-4.2c-4.5-10-20.4-7.7-22.3,4.4c-0.5,3.4-0.5,7.9,2,12.5c1.9,3.4,4.9,5.4,7.9,6.9c6.6,3.3,14.6,2.7,21.9-0.9c6.8-3.4,12.1-10.3,14.2-18.2c-1.9-2.2-5.4-3.1-6.6-4.2c-0.4-0.3-0.2-1.8,1-2.8c1.2-0.9,3.5-1.3,6.2-1.5c0.1-16.8-9.5-29.6-21.4-35.2c-6.9-3.2-15.2-4.7-21.2-3.8c-10.1,1.4-31.3,7.8-33.6,20.8c3-2.5,5.8-4.5,11.3-6.1c1.3-0.4,1,1.7-1,2.6c-25.4,11-29.4,46.8-15.9,71.2l-0.9-5.6c-0.3-1.9,0.9-4.2,1.2-2.3c2.9,15.4,10.1,26.1,19.3,34.3c12,10.6,27.6,16.2,44.2,17c6.1,0.8,14,0.7,21.6,0.1c17.5-1.5,36-4.6,48.2-1.2c7.4,4.3,6.6,12.1,0.6,16.6c-2.2,1.7-5.6,2-8.8,0.9c0.3,9,16.4,13,22.7,2.9c1.4-2.5,2.9-4.2,4.5-5.3c12.4-3.4,12.1-21.9-2.7-31.5c-8.9,4.9-17.3,6.7-24.6,2.8c-11.4,4.9-19.3,6.6-18.4,0.3c1.2-7.1,10.2-7.3,18.9-3.3c10.9,6.2,27.7-1.5,33.4-11.3c2.6-4.4,2.4-8.8-1.4-12.9c-0.7-0.4-0.7-1.8,0.7-1.9c0.4,0,2.1-0.7,3.2-1.9c4.6-4.8,2.7-10.2-2.7-12C637.9,427.9,627.4,430.1,624.7,430.5L624.7,430.5z M647,476.3c0.5,1,0.9,2.1,1.3,3.1C647.9,478.3,647.5,477.3,647,476.3L647,476.3z M641.3,465.9l-1.8,1.6l0,0l0,0c2.8,2.2,5.3,5.3,7.3,8.4l0,0c9.9,1,27.5,4.3,40,11.5c9.3,5.4,14.9,12.6,18.4,19.6c3.4-1.7,7-2.8,10.6-3.3c-3.6-12.5-14.1-26.1-30-34.1C670.3,461.9,652.7,461,641.3,465.9L641.3,465.9z M679,517.7c-1.6-4.4-5-7-8.5-8.9c-17.1-9.1-41.1,2.6-42.6,26c-0.5,7.9,2.4,17.2,8,27.5c10.6-1.9,18.1,7.7,28.5,9.9c-0.9-2.3-1.3-4.3-1.2-6.7c-5.2,0.2-8.4-1.4-11.7-3c-4.7-2.4-9-6.1-11.1-10.3c-3.7-7.4-4.6-15.9-1.5-22.8c3.5-8,11-13,15.3-6.9c1.6,2.2,1.7,4.6,2.2,6.4c1.5,4.8,3.6,6.3,7.5,2.9c3-2.6,4.8-7.9,1.1-13.3c-1.4-2-0.3-2.8,1.1-1.2c3.8,4.6,3.3,10.2,0.1,15.3C668.4,541.1,686.3,537.7,679,517.7L679,517.7z M719.4,506.3c-22.8-0.8-35.4,25.8-23.2,45.9c2.5-2.3,4-4.5,5.5-7c-3.6-21.8,7.8-30.4,19.5-27.8c11.4,1.9,26.9,19.1,11.7,26c5.2,4.9,12.5,2,15-4c1.1-2.7-0.5-6.1,1.4-6.2c0.5,0,0.4,5.4,0.5,6c0.8,1.6,1.5,1.4,4,6.8c2.5,5.5,8.3,21.3,13.7,27.3c3,3.3,6.5,4.2,9.2,2.2l-7.3-7.5c-2-2.1-1-3.7,0.6-1.9c2.6,3,6.6,6.6,11.3,9.4c7.9,4.6,16.8,5.1,21.4-1.5c-5-0.3-9.7-1.7-14.2-4.4c-1.2-0.7-0.8-2.2,0.9-1.3c1.7,0.9,5.1,2.4,8.9,3c7.5,1.2,16.6,0,17.2-7.8c-4.6,2.2-8.7,2.8-13.5,2.3c-1-0.1-1.1-1.7,0.2-1.8c11.8-0.6,23.3-6.4,28.3-17.9c4.1-9.4,1.2-15.9-2.8-19.9c-7-7-19.8-5.5-20.4,3.3c-0.3,4.9,5.8,9.1,14.3,1.9c9.4,7.4-0.2,19.9-12.9,23.9c-0.5,0.2-1.1-0.6,0.1-1.1c10.7-4.6,16.9-12.4,12.3-18.5c-2.1,7.6-5.2,9.9-9.1,12.5c-7.9,5.3-19,4.9-30.3,0.3c-8-3.4-20.5-14.8-25.8-20.1C740.9,513.8,730,506.7,719.4,506.3L719.4,506.3z M705.2,542.3c-3.4,7.5-7.7,12.5-14.2,17.4c-3.4,2.6-6.2,2.7-7.3,3.8c-1,1,1.8,1.3,5.2,1.3c3.6,0,7.8-1.8,8.8-2.3c3-1.5,6.2-4.2,8.1-6c1.2-1.1,1.5-1.8,1.9-1.5c0.7,0.5-1.2,2.1-3.1,4.1c-2.3,2.6-6.8,5.5-11.3,7.1c-8.1,2.9-17.4,2.2-21.9-7.2c-2.7-5.6-9.7,6.1-2.9,13c0.8,0.8,0.6,1.8,0.6,1.8c-4.8,4.9-18.6-5.6-23.8-7.4c-2.8-1-6.2-0.9-7.9-0.7c-11.2,1.6-16.1,9.5-13.4,17.4c0.5,1.5,0.3,2.6,3.2-0.5c4.6-4.8,15.7-7.2,22-7.3c4.5,0,8.5,0.7,11.9,0.9c7,0.5,12.3,0.5,17.8-0.3c5.9-0.9,12-3.2,20.5-9.7c9.5-7.3,15.9-18.3,18.2-28.2c1.7-7.1,2.3-12.2,2.2-17.7c-3.1-1.8-9.4,0.4-11.2,2C709.7,525.1,708.1,535.8,705.2,542.3L705.2,542.3z M572.8,491.2c-26.1,3.4-54.3-3.2-65.3-15c-13.5-0.1-17.7,7.6-12.2,15.7c2.3-5.1,6.5-7.7,13.9-5.6c19.1,7.2,41.8,31.8,47.5,15.1c0.2-0.6,0.7-0.6,1.1-0.2c0.9,0.9,2,1.3,3,1.8c2.9,1.3,5.9,0.9,8.1-0.8C571.9,500.2,573.5,498.6,572.8,491.2L572.8,491.2z M722.5,521.2c-0.8,12.4-4,23.5-9.7,33.4c13.5,10,26.9,7.3,40.3-3.6c-0.8-3.7-2.1-7.1-4.1-10.1c-4.3,6.7-8.9,8.5-13.7,7.7c-5.5-1.8-8.4-6.2-4.8-7c3.6-0.8,5.7-2.1,6.2-3.8c0.6-1.7,0.1-3.6-0.7-5.2C733.8,528.1,727.5,523.2,722.5,521.2L722.5,521.2z M706.3,525.6c-3,4.5-3.6,9.6-2.5,14.7C705.3,535.2,706.4,530.8,706.3,525.6L706.3,525.6z M754.1,552.6c-14.4,13.1-30,14.3-44,5.2l-4.9,6.1c17.5,12,35.3,9.6,53.3-0.5L754.1,552.6L754.1,552.6z M582.5,434.1c-0.9-2.2-0.8-3.6,1.4-4.2c13.9-3.8,7-33.3-17.2-31.5c9.4,8.8,12.1,19.1,6.9,31.4c-14.1,22.6-48,27-63.7,3.3c-5.5-9.3-6.8-18.5-6.4-26.8c0.5-11.2,4.7-21.4,11.6-27.1c11.3-9.3,24.8-7.2,33.6,4.4c2.2,3,3.6,6.8,5.2,11c1.9-9.6-4.1-19.7-11.8-23.3c-15.1-7-30.4,1.8-39.6,14.2c-21.7,29.4-1.4,67.2,30.9,74.8c23.2,5.4,36.9-1.3,49.9-7.7C589.6,449.4,593.6,440.9,582.5,434.1L582.5,434.1z M559.9,440.3c12.8-4.6,18.8-24,8.9-35c-6.4,19-23.8,26.6-36.6,21.7c-18.5-7.1-16.2-28.8-5.5-35.1c7.5-4.4,20.7-0.7,18.5,8c1.5,0.7,2.8,1.7,3.2,3.7c6.8-7.5,0.7-18.9-9-24.9c-4.1-2.5-9.9-2.8-15-1.7c-6.6,1.4-10.6,5.7-13.5,11c-7.1,12.7-5.3,32.6,2.4,42.8C524.8,446.1,540.8,448.1,559.9,440.3L559.9,440.3z M614.3,417.6c-0.7,3.8,7,8.6,15.7,9.1c8-0.7,15.6-0.8,20.6,2.9C646.3,406.9,617,404.1,614.3,417.6L614.3,417.6z M607.4,472c-5.6-2.6-11.8-2.9-12.4,0.9C594.7,475.4,600.6,473.7,607.4,472z"/><path fill-rule="evenodd" fill="#000910" stroke="#000910" stroke-width="0.2835" stroke-miterlimit="22.9256" d="M727.3,470.8c-25.7-13.3-58.2-18.1-81.3-11.9c0.2-0.6,0.4-1.3,0.6-2c6.6-2.8,16.3-3.7,23.5-3.8c26.9-0.4,53,9.2,73.1,23.4c22.8,16.2,37.6,40,32.8,68.7c-5.1-4.4-9-7.4-14.4-11.2c-3.3-23.9-18.5-42.8-38.3-54.7c-3-1.8-6.1-3.4-9.3-4.9c-12.4-5.7-43.1-12.6-65.4-11.8c-1.6-0.3-2.9-0.5-3.9-0.6c21.9-1.6,51.7,1.2,68.7,8.7c34.7,15.2,48.1,38.6,51.4,63.1l9.2,7.2C777.1,507.5,755,485.1,727.3,470.8z"/></g><path fill-rule="evenodd" fill="none" stroke="#000910" stroke-width="4.252" stroke-miterlimit="22.9256" d="M419.6,176c48.2-1,88.1,36.6,89.1,84.1c1,47.5-37.2,86.8-85.3,87.8c-48.2,1-88.1-36.6-89.1-84.1C333.2,216.4,371.4,177.1,419.6,176L419.6,176z M419,147.1c63.5-1.4,116.1,48.9,117.4,112.4c1.4,63.5-49,116-112.4,117.4S307.9,328,306.5,264.5C305.2,201,355.5,148.5,419,147.1z"/><g><path fill-rule="evenodd" fill="none" stroke="#000910" stroke-width="1.1339" stroke-miterlimit="22.9256" d="M319.8,400.4c-3-5.8-11.3-5.8-13.6-1.6"/><path fill-rule="evenodd" fill="none" stroke="#000910" stroke-width="0.7087" stroke-miterlimit="22.9256" d="M288.2,412.5c-2.6-1.5-5.1-6.6-5.1-10.1"/><path fill-rule="evenodd" fill="none" stroke="#000910" stroke-width="0.7087" stroke-miterlimit="22.9256" d="M282.4,395.6c0.4-5.6,2.2-10.6,6.1-14.5"/><path fill-rule="evenodd" fill="none" stroke="#0F1823" stroke-width="1.4173" stroke-miterlimit="22.9256" d="M298.6,365.5c-13,5.9-17.3,17.6-18.9,29.6"/><path fill-rule="evenodd" fill="none" stroke="#000910" stroke-width="1.4173" stroke-miterlimit="22.9256" d="M289.9,418.7c-5.4-3.5-8.4-9.8-9-15.3"/><path fill-rule="evenodd" fill="none" stroke="#000910" stroke-width="1.1339" stroke-miterlimit="22.9256" d="M269.4,406.5c-6.3-1.6-19.1,18.4-8.3,21.6"/><path fill-rule="evenodd" fill="none" stroke="#000910" stroke-width="1.1339" stroke-miterlimit="22.9256" d="M268.8,453.8c-8.3-0.8-16.9-10.9-6.6-14.5"/><path fill-rule="evenodd" fill="none" stroke="#000910" stroke-width="1.1339" stroke-miterlimit="22.9256" d="M343.3,452.7c-10.9,24.3-50.6,33-81.6,14.3"/><path fill-rule="evenodd" fill="none" stroke="#000910" stroke-width="0.7087" stroke-miterlimit="22.9256" d="M333.1,461.7c-18,15.5-41.8,14.5-64.3,3.4"/><path fill-rule="evenodd" fill="none" stroke="#000910" stroke-width="0.7087" stroke-miterlimit="22.9256" d="M281.6,500.3c-6.1,0-8-3.4-6.9-8.4"/><path fill-rule="evenodd" fill="none" stroke="#000910" stroke-width="0.8504" stroke-miterlimit="22.9256" d="M317.1,491.1c-9.8,7.6-17.8,10.8-23,7.4"/><path fill-rule="evenodd" fill="none" stroke="#000910" stroke-width="1.5591" stroke-miterlimit="22.9256" d="M347.9,484.9c-2.9-3-8.4-3.1-14,0c-10.6,5.7-25.2,16.1-33.1,18.1c-4.8,1.2-7.9,0.3-9-2.9"/><path fill-rule="evenodd" fill="none" stroke="#000910" stroke-width="0.5669" stroke-miterlimit="22.9256" d="M292.2,479.7c1.7,4.5-0.3,6.4-3.7,7.2"/><path fill-rule="evenodd" fill="none" stroke="#000910" stroke-width="0.7087" stroke-miterlimit="22.9256" d="M281.4,479.7c2.2,2.9-0.1,6-3.6,6.8"/><path fill-rule="evenodd" fill="none" stroke="#000910" stroke-width="0.7087" stroke-miterlimit="22.9256" d="M270.5,476.4c2.4,5.3-3.3,9.5-6.9,8.5"/><path fill-rule="evenodd" fill="none" stroke="#000910" stroke-width="0.7087" stroke-miterlimit="22.9256" d="M257.1,470.5c3.2,4.6-0.3,11.9-5.1,11.8"/><path fill-rule="evenodd" fill="none" stroke="#000910" stroke-width="1.1339" stroke-miterlimit="22.9256" d="M226.3,508.2c-5.6,4.7-10.7,3.4-14.1-5.9"/><path fill-rule="evenodd" fill="none" stroke="#000910" stroke-width="1.1339" stroke-miterlimit="22.9256" d="M206.6,498.5c-7.4-2.1-6.1-9.3-4.4-13.9c1.4-3.6,4-6.2,7.6-7.5"/><path fill-rule="evenodd" fill="none" stroke="#000910" stroke-width="0.7087" stroke-miterlimit="22.9256" d="M212.5,464.1c-2.1-0.3-9.9-4.8-6.5-10"/><path fill-rule="evenodd" fill="none" stroke="#000910" stroke-width="1.1339" stroke-miterlimit="22.9256" d="M204.5,450.8c-5.6,5.7,0.1,15.1,12.8,19"/><path fill-rule="evenodd" fill="none" stroke="#000910" stroke-width="1.1339" stroke-miterlimit="22.9256" d="M201.8,442.9c-3.6-0.6-4.2-7.4-0.9-9.6"/><path fill-rule="evenodd" fill="none" stroke="#000910" stroke-width="1.1339" stroke-miterlimit="22.9256" d="M220.8,414.9c9.6,1.3,3.8,9.5-3,9.3"/><path fill-rule="evenodd" fill="none" stroke="#000910" stroke-width="0.7087" stroke-miterlimit="22.9256" d="M134.3,504c2.9-5.8,5.1-8.3,9.5-12.2"/><path fill-rule="evenodd" fill="none" stroke="#000910" stroke-width="1.1339" stroke-miterlimit="22.9256" d="M150.3,485.6c-7.6,2.4-12.7,8.5-18,17.6"/><path fill-rule="evenodd" fill="none" stroke="#000910" stroke-width="0.7087" stroke-miterlimit="22.9256" d="M199.2,471.5c-11.2,0.1-20.5,2.6-28.5,6.5"/><path fill-rule="evenodd" fill="none" stroke="#000910" stroke-width="1.1339" stroke-miterlimit="22.9256" d="M162.5,475.8c12.9-6.7,26.4-8.4,40.2-6.9"/><path fill-rule="evenodd" fill="none" stroke="#000910" stroke-width="0.7087" stroke-miterlimit="22.9256" d="M180.1,457.7c4.8,0,9.5,0.3,13.9,1.2"/><path fill-rule="evenodd" fill="none" stroke="#000910" stroke-width="0.7087" stroke-miterlimit="22.9256" d="M148.5,539.1c0.4,3.6,0.1,6.3-1.5,8.7"/><path fill-rule="evenodd" fill="none" stroke="#000910" stroke-width="0.7087" stroke-miterlimit="22.9256" d="M171.3,531.3c-3.3-5-1.9-12.3,5.5-16.2"/><path fill-rule="evenodd" fill="none" stroke="#000910" stroke-width="1.1339" stroke-miterlimit="22.9256" d="M177.3,512.3c-9.6,3-14.2,16.6-6.8,22.2"/><path fill-rule="evenodd" fill="none" stroke="#000910" stroke-width="1.1339" stroke-miterlimit="22.9256" d="M183.4,531.7c-4.3-2.4-3.9-11.2,1.6-14.1"/><path fill-rule="evenodd" fill="none" stroke="#000910" stroke-width="1.1339" stroke-miterlimit="22.9256" d="M174.1,564.2c-2.2,5.1-7.4,7.3-13.5,6.1"/><path fill-rule="evenodd" fill="none" stroke="#000910" stroke-width="1.1339" stroke-miterlimit="22.9256" d="M220.3,578.7c-3.4-9.3-16.1-12.9-26.2-4.8"/><path fill-rule="evenodd" fill="none" stroke="#000910" stroke-width="0.7087" stroke-miterlimit="22.9256" d="M126.7,565.6c3.2-1,6.2-2.2,8.5-4.3"/><path fill-rule="evenodd" fill="none" stroke="#000910" stroke-width="0.7087" stroke-miterlimit="22.9256" d="M110.3,567.3c-4.9-0.1-9.8-1.7-14.6-4.7"/><path fill-rule="evenodd" fill="none" stroke="#000910" stroke-width="1.1339" stroke-miterlimit="22.9256" d="M112.3,569.7c-6.1,0.6-14-2.4-19.4-6"/><path fill-rule="evenodd" fill="none" stroke="#000910" stroke-width="1.1339" stroke-miterlimit="22.9256" d="M99.1,535.4c-0.4,4.4,1.1,7.7,6.4,9"/><path fill-rule="evenodd" fill="none" stroke="#000910" stroke-width="0.7087" stroke-miterlimit="22.9256" d="M71.2,551.8c-6.7,5.9-15.7,9.3-24.2,8.4"/><path fill-rule="evenodd" fill="none" stroke="#000910" stroke-width="1.1339" stroke-miterlimit="22.9256" d="M81.7,540.6c-13.9,13.1-27.2,19.4-40.6,15.6"/><path fill-rule="evenodd" fill="none" stroke="#000910" stroke-width="0.7087" stroke-miterlimit="22.9256" d="M77.6,533.8c-2.6-6.2,1.5-23.1,7.9-29.6"/><path fill-rule="evenodd" fill="none" stroke="#000910" stroke-width="1.1339" stroke-miterlimit="22.9256" d="M88.6,498.1c-9.4,6.9-17,23.2-14.1,38.9"/><path fill-rule="evenodd" fill="none" stroke="#000910" stroke-width="1.1339" stroke-miterlimit="22.9256" d="M35.3,530.4c-2.1-7.9-15.8-5.8-19.9,5.2"/><path fill-rule="evenodd" fill="none" stroke="#000910" stroke-width="1.1339" stroke-miterlimit="22.9256" d="M150.9,537.2c0.2,4.2-0.5,9.2-2.2,12.8"/><path fill-rule="evenodd" fill="none" stroke="#000910" stroke-width="1.1339" stroke-miterlimit="22.9256" d="M121.8,568.1c4.1,0.9,12.3-3.3,14.5-5.6"/><path fill-rule="evenodd" fill="#A68E6A" stroke="#000910" stroke-width="0.2835" stroke-miterlimit="22.9256" d="M117.3,471.1c25.7-13.3,58.2-18.1,81.3-11.9c-0.2-0.6-0.4-1.3-0.6-2c-6.6-2.8-16.3-3.7-23.5-3.8c-26.9-0.4-53,9.2-73.1,23.4c-22.8,16.2-37.6,40-32.8,68.7c5.1-4.4,9-7.4,14.4-11.2c3.3-23.9,18.5-42.8,38.3-54.7c3-1.8,6.1-3.4,9.3-4.9c12.4-5.7,43.1-12.6,65.4-11.8c1.6-0.3,2.9-0.5,3.9-0.6c-21.9-1.6-51.7,1.2-68.7,8.7c-34.7,15.2-48.1,38.6-51.4,63.1l-9.2,7.2C67.5,507.8,89.6,485.5,117.3,471.1z"/><path fill-rule="evenodd" fill="#A68E6A" stroke="#0F1823" stroke-width="0.2835" stroke-miterlimit="22.9256" d="M233.1,470.4c-10.9,6.2-27.7-1.5-33.4-11.3c-2.6-4.4-2.4-8.8,1.4-12.9c0.7-0.4,0.7-1.8-0.7-1.9c-0.4,0-2.1-0.7-3.2-1.9c-4.6-4.8-2.7-10.2,2.7-12c6.9-2.2,17.3-0.1,20,0.4c5.8,12.4,19.5,19.8,36.5,20.4c8.8,8.8,20.6,12.5,33.2,14.2c74,9.9,81.7-82.4,33.3-98.4c-6.8-2.3-14.4-0.5-20.5,2.4c-13.3,6.4-20.4,23.5-6.7,37.6c-0.1,4.2,3,4.8,2.1,2.8c-1.8-4.1,0-6.2,5.7-7.4c7.1-1.5,8.6,7.8,0.1,10.2c-1.5,0.4-2.1,0.4-2.1,1.4c0,4.6,15,0.4,9.5-10.4c-1.7-3.4-5.4-4.6-9.7-4.2c4.5-10,20.4-7.7,22.3,4.4c0.5,3.4,0.5,7.9-2,12.5c-1.9,3.4-4.9,5.4-7.9,6.9c-6.6,3.3-14.6,2.7-21.9-0.9c-6.8-3.4-12.1-10.3-14.2-18.2c1.9-2.2,5.4-3.1,6.6-4.2c0.4-0.3,0.2-1.8-1-2.8c-1.2-0.9-3.5-1.3-6.2-1.5c-0.1-16.8,9.5-29.6,21.4-35.2c6.9-3.2,15.2-4.7,21.2-3.8c10.1,1.4,31.3,7.8,33.6,20.8c-3-2.5-5.8-4.5-11.3-6.1c-1.3-0.4-1,1.7,1,2.6c25.4,11,29.4,46.8,15.9,71.2l0.9-5.6c0.3-1.9-0.9-4.2-1.2-2.3c-2.9,15.4-10.1,26.1-19.3,34.3c-12,10.6-27.6,16.2-44.2,17c-6.1,0.8-14,0.7-21.6,0.1c-17.5-1.5-36-4.6-48.2-1.2c-7.4,4.3-6.6,12.1-0.6,16.6c2.2,1.7,5.6,2,8.8,0.9c-0.3,9-16.4,13-22.7,2.9c-1.4-2.5-2.9-4.2-4.5-5.3c-12.4-3.4-12.1-21.9,2.7-31.5c8.9,4.9,17.3,6.7,24.6,2.8c11.4,4.9,19.3,6.6,18.4,0.3C250.8,466.6,241.8,466.4,233.1,470.4z"/><path fill-rule="evenodd" fill="#A68E6A" stroke="#0F1823" stroke-width="0.2835" stroke-miterlimit="22.9256" d="M284.8,440.6c-12.8-4.6-18.8-24-8.9-35c6.4,19,23.8,26.6,36.6,21.7c18.5-7.1,16.2-28.8,5.5-35.1c-7.5-4.4-20.7-0.7-18.5,8c-1.5,0.7-2.8,1.7-3.2,3.7c-6.8-7.5-0.7-18.9,9-24.9c4.1-2.5,9.9-2.8,15-1.7c6.6,1.4,10.6,5.7,13.5,11c7.1,12.7,5.3,32.6-2.4,42.8C319.8,446.4,303.9,448.4,284.8,440.6z"/><path fill-rule="evenodd" fill="#A68E6A" stroke="#0F1823" stroke-width="0.2835" stroke-miterlimit="22.9256" d="M271.1,430.2c14.1,22.6,48,27,63.7,3.3c5.5-9.3,6.8-18.5,6.4-26.8c-0.5-11.2-4.7-21.4-11.6-27.1c-11.3-9.3-24.8-7.2-33.6,4.4c-2.2,3-3.6,6.8-5.2,11c-1.9-9.6,4.1-19.7,11.8-23.3c15.1-7,30.4,1.8,39.6,14.2c21.7,29.4,1.4,67.2-30.9,74.8c-23.2,5.4-36.9-1.3-49.9-7.7c-6.5-3.2-10.5-11.7,0.6-18.4c0.9-2.2,0.8-3.6-1.4-4.2c-13.9-3.8-7-33.3,17.2-31.5C268.6,407.5,265.9,417.9,271.1,430.2z"/><path fill-rule="evenodd" fill="#A68E6A" stroke="#0F1823" stroke-width="0.2835" stroke-miterlimit="22.9256" d="M219.9,430.9c5.8,12.4,19.5,19.8,36.5,20.4c8.8,8.8,20.6,12.5,33.2,14.2c74,9.9,81.7-82.4,33.3-98.4c-6.8-2.3-14.4-0.5-20.5,2.4c-13.3,6.4-20.4,23.5-6.7,37.6c-0.1,4.2,3,4.8,2.1,2.8c-1.8-4.1,0-6.2,5.7-7.4c7.1-1.5,8.6,7.8,0.1,10.2c-1.5,0.4-2.1,0.4-2.1,1.4c0,4.6,15,0.4,9.5-10.4c-1.7-3.4-5.4-4.6-9.7-4.2c4.5-10,20.4-7.7,22.3,4.4c0.5,3.4,0.5,7.9-2,12.5c-1.9,3.4-4.9,5.4-7.9,6.9c-6.6,3.3-14.6,2.7-21.9-0.9c-6.8-3.4-12.1-10.3-14.2-18.2c1.9-2.2,5.4-3.1,6.6-4.2c0.4-0.3,0.2-1.8-1-2.8c-1.2-0.9-3.5-1.3-6.2-1.5c-0.1-16.8,9.5-29.6,21.4-35.2c6.9-3.2,15.2-4.7,21.2-3.8c10.1,1.4,31.3,7.8,33.6,20.8c-3-2.5-5.8-4.5-11.3-6.1c-1.3-0.4-1,1.7,1,2.6c25.4,11,29.4,46.8,15.9,71.2l0.9-5.6c0.3-1.9-0.9-4.2-1.2-2.3c-2.9,15.4-10.1,26.1-19.3,34.3c-12,10.6-27.6,16.2-44.2,17c-6.1,0.8-14,0.7-21.6,0.1c-17.5-1.5-36-4.6-48.2-1.2c-7.4,4.3-6.6,12.1-0.6,16.6c2.2,1.7,5.6,2,8.8,0.9c-0.3,9-16.4,13-22.7,2.9c-1.4-2.5-2.9-4.2-4.5-5.3c-12.4-3.4-12.1-21.9,2.7-31.5c8.9,4.9,17.3,6.7,24.6,2.8c11.4,4.9,19.3,6.6,18.4,0.3c-1.2-7.1-10.2-7.3-18.9-3.3c-10.9,6.2-27.7-1.5-33.4-11.3c-2.6-4.4-2.4-8.8,1.4-12.9c0.7-0.4,0.7-1.8-0.7-1.9c-0.4,0-2.1-0.7-3.2-1.9c-4.6-4.8-2.7-10.2,2.7-12C206.8,428.2,217.2,430.4,219.9,430.9z"/><path fill-rule="evenodd" fill="#A68E6A" stroke="#000910" stroke-width="0.2835" stroke-miterlimit="22.9256" d="M214.7,427c-8-0.7-15.6-0.8-20.6,2.9c4.2-22.8,33.6-25.6,36.3-12C231.1,421.7,223.4,426.5,214.7,427z"/><path fill-rule="evenodd" fill="#A68E6A" stroke="#000910" stroke-width="0.2835" stroke-miterlimit="22.9256" d="M271.9,491.5c26.1,3.4,54.3-3.2,65.3-15c13.5-0.1,17.7,7.6,12.2,15.7c-2.3-5.1-6.5-7.7-13.9-5.6c-19.1,7.2-41.8,31.8-47.5,15.1c-0.2-0.6-0.7-0.6-1.1-0.2c-0.9,0.9-2,1.3-3,1.8c-2.9,1.3-5.9,0.9-8.1-0.8C272.8,500.5,271.2,498.9,271.9,491.5z"/><path fill-rule="evenodd" fill="#A68E6A" stroke="#000910" stroke-width="0.2835" stroke-miterlimit="22.9256" d="M197.8,476.3c-9.9,1-27.5,4.3-40,11.5c-9.3,5.4-14.9,12.6-18.4,19.6c-3.4-1.7-7-2.8-10.6-3.3c3.6-12.5,14.1-26.1,30-34.1c15.6-7.8,33.2-8.8,44.6-3.8l1.8,1.6l0,0l0,0C202.3,470.1,199.8,473.1,197.8,476.3L197.8,476.3z"/><path fill-rule="evenodd" fill="#A68E6A" stroke="#000910" stroke-width="0.2835" stroke-miterlimit="22.9256" d="M171.7,462.5c-15.1,1.2-30.1,4-40.4,8.5c-34.1,15-47.7,37.8-51.2,62l-9.4,7.4c-2.6-33,19.3-55,46.7-69.2c25.4-13.1,57.3-18,80.4-12.1c0.2,0.4,0.4,0.7,0.6,1.1c0.2,0.4,0.7,1,1.3,1.8C190.9,459.9,181.2,460.1,171.7,462.5z"/><path fill-rule="evenodd" fill="#A68E6A" stroke="#000910" stroke-width="0.2835" stroke-miterlimit="22.9256" d="M88.8,528.9c14.9-14.8,25.9-22,36.4-22.3c22.8-0.8,35.4,25.8,23.2,45.9c-2.5-2.3-4-4.5-5.5-7c3.6-21.8-7.8-30.4-19.5-27.8c-11.4,1.9-26.9,19.1-11.7,26c-5.2,4.9-12.5,2-15-4c-1.1-2.7,0.5-6.1-1.4-6.2c-0.5,0-0.4,5.4-0.5,6c-0.8,1.6-1.5,1.4-4,6.8c-2.5,5.5-8.3,21.3-13.7,27.3c-3,3.3-6.5,4.2-9.2,2.2l7.3-7.5c2-2.1,1-3.7-0.6-1.9c-2.6,3-6.6,6.6-11.3,9.4c-7.9,4.6-16.8,5.1-21.4-1.5c5-0.3,9.7-1.7,14.2-4.4c1.2-0.7,0.8-2.2-0.9-1.3c-1.7,0.9-5.1,2.4-8.9,3c-7.5,1.2-16.6,0-17.2-7.8c4.6,2.2,8.7,2.8,13.5,2.3c1-0.1,1.1-1.7-0.2-1.8c-11.8-0.6-23.3-6.4-28.3-17.9c-4.1-9.4-1.2-15.9,2.8-19.9c7-7,19.8-5.5,20.4,3.3c0.3,4.9-5.8,9.1-14.3,1.9c-9.4,7.4,0.2,19.9,12.9,23.9c0.5,0.2,1.1-0.6-0.1-1.1c-10.7-4.6-16.9-12.4-12.3-18.5c2.1,7.6,5.2,9.9,9.1,12.5c7.9,5.3,19,4.9,30.3,0.3c5.7-2.4,13.7-8.9,19.8-14.3c0.1-0.1,0.3-0.2,0.4-0.3c0,0,0-0.1,0-0.1C85.4,532.3,87.3,530.4,88.8,528.9z"/><path fill-rule="evenodd" fill="#A68E6A" stroke="#000910" stroke-width="0.2835" stroke-miterlimit="22.9256" d="M127.1,538.4c-1.7-7.1-2.3-12.2-2.2-17.7c3.1-1.8,9.4,0.4,11.2,2c-1.2,2.6,0.4,13.4,3.3,19.9c3.4,7.5,7.7,12.5,14.2,17.4c3.4,2.6,6.2,2.7,7.3,3.8c1,1-1.8,1.3-5.2,1.3c-3.6,0-7.8-1.8-8.8-2.3c-3-1.5-6.2-4.2-8.1-6c-1.2-1.1-1.5-1.8-1.9-1.5c-0.7,0.5,1.2,2.1,3.1,4.1c2.3,2.6,6.8,5.5,11.3,7.1c8.1,2.9,17.4,2.2,21.9-7.2c2.7-5.6,9.7,6.1,2.9,13c-0.8,0.8-0.6,1.8-0.6,1.8c4.8,4.9,18.6-5.6,23.8-7.4c2.8-1,6.2-0.9,7.9-0.7c11.2,1.6,16.1,9.5,13.4,17.4c-0.5,1.5-0.3,2.6-3.2-0.5c-4.6-4.8-15.7-7.2-22-7.3c-4.5,0-8.5,0.7-11.9,0.9c-7,0.5-12.3,0.5-17.8-0.3c-5.9-0.9-12-3.2-20.5-9.7C135.8,559.3,129.4,548.3,127.1,538.4z"/><path fill-rule="evenodd" fill="#A68E6A" stroke="#000910" stroke-width="0.2835" stroke-miterlimit="22.9256" d="M178.4,533c-2.1,8.5-20,5-12.7-15c1.6-4.4,5-7,8.5-8.9c17.1-9.1,41.1,2.6,42.6,26c0.5,7.9-2.4,17.2-8,27.5c-10.6-1.9-18.1,7.7-28.5,9.9c0.9-2.3,1.3-4.3,1.2-6.7c5.2,0.2,8.4-1.4,11.7-3c4.7-2.4,9-6.1,11.1-10.3c3.7-7.4,4.6-15.9,1.5-22.8c-3.5-8-11-13-15.3-6.9c-1.6,2.2-1.7,4.6-2.2,6.4c-1.5,4.8-3.6,6.3-7.5,2.9c-3-2.6-4.8-7.9-1.1-13.3c1.4-2,0.3-2.8-1.1-1.2C174.7,522.2,175.3,527.8,178.4,533z"/><path fill-rule="evenodd" fill="#A68E6A" stroke="#000910" stroke-width="0.2835" stroke-miterlimit="22.9256" d="M90.6,553c14.4,13.1,30,14.3,44,5.2l4.9,6.1c-17.5,12-35.3,9.6-53.3-0.5L90.6,553z"/><path fill-rule="evenodd" fill="none" stroke="#000910" stroke-width="1.4173" stroke-miterlimit="22.9256" d="M319.8,400.4c-3-5.8-11.3-5.8-13.6-1.6"/><path fill-rule="evenodd" fill="none" stroke="#000910" stroke-width="1.4173" stroke-miterlimit="22.9256" d="M288.2,412.5c-2.6-1.5-5.1-6.6-5.1-10.1"/><path fill-rule="evenodd" fill="none" stroke="#000910" stroke-width="1.4173" stroke-miterlimit="22.9256" d="M282.4,395.6c0.4-5.6,2.2-10.6,6.1-14.5"/><path fill-rule="evenodd" fill="none" stroke="#000910" stroke-width="1.4173" stroke-miterlimit="22.9256" d="M298.6,365.5c-13,5.9-17.3,17.6-18.9,29.6"/><path fill-rule="evenodd" fill="none" stroke="#000910" stroke-width="1.4173" stroke-miterlimit="22.9256" d="M289.9,418.7c-5.4-3.5-8.4-9.8-9-15.3"/><path fill-rule="evenodd" fill="none" stroke="#000910" stroke-width="1.4173" stroke-miterlimit="22.9256" d="M269.2,403.4c-6.3-1.6-19.1,18.4-8.3,21.6"/><path fill-rule="evenodd" fill="none" stroke="#000910" stroke-width="1.4173" stroke-miterlimit="22.9256" d="M268.8,453.8c-8.3-0.8-16.9-10.9-6.6-14.5"/><path fill-rule="evenodd" fill="none" stroke="#000910" stroke-width="1.4173" stroke-miterlimit="22.9256" d="M343.3,452.7c-10.9,24.3-50.6,33-81.6,14.3"/><path fill-rule="evenodd" fill="none" stroke="#000910" stroke-width="1.4173" stroke-miterlimit="22.9256" d="M333.1,461.7c-18,15.5-41.8,14.5-64.3,3.4"/><path fill-rule="evenodd" fill="none" stroke="#000910" stroke-width="1.4173" stroke-miterlimit="22.9256" d="M281.6,500.3c-6.1,0-8-3.4-6.9-8.4"/><path fill-rule="evenodd" fill="none" stroke="#000910" stroke-width="1.4173" stroke-miterlimit="22.9256" d="M317.1,491.1c-9.8,7.6-17.8,10.8-23,7.4"/><path fill-rule="evenodd" fill="none" stroke="#000910" stroke-width="1.5591" stroke-miterlimit="22.9256" d="M347.9,484.9c-2.9-3-8.4-3.1-14,0c-10.6,5.7-25.2,16.1-33.1,18.1c-4.8,1.2-7.9,0.3-9-2.9"/><path fill-rule="evenodd" fill="none" stroke="#000910" stroke-width="1.4173" stroke-miterlimit="22.9256" d="M292.2,479.7c1.7,4.5-0.3,6.4-3.7,7.2"/><path fill-rule="evenodd" fill="none" stroke="#000910" stroke-width="1.4173" stroke-miterlimit="22.9256" d="M281.4,479.7c2.2,2.9-0.1,6-3.6,6.8"/><path fill-rule="evenodd" fill="none" stroke="#000910" stroke-width="1.4173" stroke-miterlimit="22.9256" d="M270.5,476.4c2.4,5.3-3.3,9.5-6.9,8.5"/><path fill-rule="evenodd" fill="none" stroke="#000910" stroke-width="1.4173" stroke-miterlimit="22.9256" d="M257.1,470.5c3.2,4.6-0.3,11.9-5.1,11.8"/><path fill-rule="evenodd" fill="none" stroke="#000910" stroke-width="1.4173" stroke-miterlimit="22.9256" d="M226.3,508.2c-5.6,4.7-10.7,3.4-14.1-5.9"/><path fill-rule="evenodd" fill="none" stroke="#000910" stroke-width="1.4173" stroke-miterlimit="22.9256" d="M206.6,498.5c-7.4-2.1-6.1-9.3-4.4-13.9c1.4-3.6,4-6.2,7.6-7.5"/><path fill-rule="evenodd" fill="none" stroke="#000910" stroke-width="0.7087" stroke-miterlimit="22.9256" d="M212.5,464.1c-2.1-0.3-9.9-4.8-6.5-10"/><path fill-rule="evenodd" fill="none" stroke="#000910" stroke-width="1.1339" stroke-miterlimit="22.9256" d="M204.5,450.8c-5.6,5.7,0.1,15.1,12.8,19"/><path fill-rule="evenodd" fill="none" stroke="#000910" stroke-width="1.4173" stroke-miterlimit="22.9256" d="M201.8,442.9c-3.6-0.6-4.2-7.4-0.9-9.6"/><path fill-rule="evenodd" fill="none" stroke="#000910" stroke-width="1.4173" stroke-miterlimit="22.9256" d="M220.8,414.9c9.6,1.3,3.8,9.5-3,9.3"/><path fill-rule="evenodd" fill="none" stroke="#000910" stroke-width="0.7087" stroke-miterlimit="22.9256" d="M134.3,504c2.9-5.8,5.1-8.3,9.5-12.2"/><path fill-rule="evenodd" fill="none" stroke="#000910" stroke-width="1.1339" stroke-miterlimit="22.9256" d="M150.3,485.6c-7.6,2.4-12.7,8.5-18,17.6"/><path fill-rule="evenodd" fill="none" stroke="#000910" stroke-width="1.4173" stroke-miterlimit="22.9256" d="M199.2,471.5c-11.2,0.1-20.5,2.6-28.5,6.5"/><path fill-rule="evenodd" fill="none" stroke="#000910" stroke-width="1.4173" stroke-miterlimit="22.9256" d="M162.5,475.8c12.9-6.7,26.4-8.4,40.2-6.9"/><path fill-rule="evenodd" fill="none" stroke="#000910" stroke-width="1.4173" stroke-miterlimit="22.9256" d="M180.3,458.4c4.8,0,9.5,0.3,13.9,1.2"/><path fill-rule="evenodd" fill="none" stroke="#000910" stroke-width="0.7087" stroke-miterlimit="22.9256" d="M148.5,539.1c0.4,3.6,0.1,6.3-1.5,8.7"/><path fill-rule="evenodd" fill="none" stroke="#000910" stroke-width="1.4173" stroke-miterlimit="22.9256" d="M171.3,531.3c-3.3-5-1.9-12.3,5.5-16.2"/><path fill-rule="evenodd" fill="none" stroke="#000910" stroke-width="1.4173" stroke-miterlimit="22.9256" d="M177.3,512.3c-9.6,3-14.2,16.6-6.8,22.2"/><path fill-rule="evenodd" fill="none" stroke="#000910" stroke-width="1.4173" stroke-miterlimit="22.9256" d="M183.4,531.7c-4.3-2.4-3.9-11.2,1.6-14.1"/><path fill-rule="evenodd" fill="none" stroke="#000910" stroke-width="1.4173" stroke-miterlimit="22.9256" d="M174.1,564.2c-2.2,5.1-7.4,7.3-13.5,6.1"/><path fill-rule="evenodd" fill="none" stroke="#000910" stroke-width="1.4173" stroke-miterlimit="22.9256" d="M220.3,578.7c-3.4-9.3-16.1-12.9-26.2-4.8"/><path fill-rule="evenodd" fill="none" stroke="#000910" stroke-width="0.7087" stroke-miterlimit="22.9256" d="M126.7,565.6c3.2-1,6.2-2.2,8.5-4.3"/><path fill-rule="evenodd" fill="none" stroke="#000910" stroke-width="1.4173" stroke-miterlimit="22.9256" d="M110.3,567.3c-4.9-0.1-9.8-1.7-14.6-4.7"/><path fill-rule="evenodd" fill="none" stroke="#000910" stroke-width="1.4173" stroke-miterlimit="22.9256" d="M112.3,569.7c-6.1,0.6-14-2.4-19.4-6"/><path fill-rule="evenodd" fill="none" stroke="#000910" stroke-width="1.4173" stroke-miterlimit="22.9256" d="M99.1,535.4c-0.4,4.4,1.1,7.7,6.4,9"/><path fill-rule="evenodd" fill="none" stroke="#000910" stroke-width="1.4173" stroke-miterlimit="22.9256" d="M71.2,551.8c-6.7,5.9-15.7,9.3-24.2,8.4"/><path fill-rule="evenodd" fill="none" stroke="#000910" stroke-width="1.4173" stroke-miterlimit="22.9256" d="M81.7,540.6c-13.9,13.1-27.2,19.4-40.6,15.6"/><path fill-rule="evenodd" fill="none" stroke="#000910" stroke-width="1.4173" stroke-miterlimit="22.9256" d="M77.6,533.8c-2.6-6.2,1.5-23.1,7.9-29.6"/><path fill-rule="evenodd" fill="none" stroke="#000910" stroke-width="1.4173" stroke-miterlimit="22.9256" d="M88.6,498.1c-9.4,6.9-17,23.2-14.1,38.9"/><path fill-rule="evenodd" fill="none" stroke="#000910" stroke-width="1.4173" stroke-miterlimit="22.9256" d="M35.3,530.4c-2.1-7.9-15.8-5.8-19.9,5.2"/><path fill-rule="evenodd" fill="none" stroke="#000910" stroke-width="1.1339" stroke-miterlimit="22.9256" d="M150.9,537.2c0.2,4.2-0.5,9.2-2.2,12.8"/><path fill-rule="evenodd" fill="none" stroke="#000910" stroke-width="1.1339" stroke-miterlimit="22.9256" d="M121.8,568.1c4.1,0.9,12.3-3.3,14.5-5.6"/><path fill-rule="evenodd" fill="#000910" stroke="#000910" stroke-width="0.2835" stroke-miterlimit="22.9256" d="M224,426.8c7.2-1.7,10.1-6.5,8.2-11.1c-3.7-8.9-14.2-8.3-21.2-7.2c-14.8,4.2-26.8,22.1-13.6,34.6c1.2,1.3,0.6,1.4,0,2.5c-2.6,4.3-1.4,10.7,0.9,14.6c0.2,0.4,0.7,1,1.3,1.8c-26.5-6-62.6,8.7-73.7,41.8c-13.3,0.4-27.8,10.3-43.1,26.5c-0.7,0.6-1.9,2.1-2.6,2.7l-11.9,9.3c-19.9,15.6-40.7,6-42.8-4.9c13.8,6.1,16.2-4.9,13.1-11.9c-3.8-9-21.5-8.9-26.3,0.8c-5.2,10.6-4.3,23.5,14.3,36.9c1.2,5.6,4.7,9.7,12.3,11.1c5.2,8.3,14.8,10.7,26.3,2.8c6.4,7.7,15.6-0.6,19.9-11.5c21.1,12.8,38.8,13.6,56.7,1.5c13.1,12.1,29.6,14.5,46.4,12.9c12.3-1.2,24.7,0.8,32.6,9.5c5.8-7.1,2.3-21.6-9.9-26.3c5.7-7.8,7.4-15.9,7.7-23.2c0.5-10.6-3-19.9-9.7-26.8c-7.6-7.7-18.3-11.2-27.8-9.8c-8.5,1.2-17.3,5.7-19.9,17.9c-4.2,19.3,16.3,23.8,19.3,14.1c4.1,3.7,8.1,2.7,9.8-4.4c3.1-14.1,15.7-4.9,15.5,6.1c-0.2,13.9-11.5,24.4-24.9,25.4c-1-4.4-3.6-7.5-8.8-8.7c-0.4,3.6-2.6,6.3-5.7,8.5c-6.2-0.5-11.3-3.5-15.7-7.6c8.7-13.9,5.5-33.2-8.3-45.4c8.1-18,26.5-27,54-29.5c-1.6,4.7-1.7,9.5-0.6,14c1.3,5,3.8,9.7,10.7,11.6c6,8.6,8.5,10.2,13.1,11.2c11.5,2.4,18.8-6,16.7-13.9c-0.3-1.1-1.1-2.5-2.1-3.2c-13.7,8-15.6-9.2-3.4-9.8c12.6-1,25.6,0.3,38.6,1.8c0.5,14.9,11.7,18.3,18.5,13.9c3.4,7.3,11.6,6.4,17.5,3.2c18.2-9.4,37.5-27.1,42.5-15.4c1.1,3.7,2.8,4.4,4.3,1.5c4.8-9.2,1.2-18.1-10.7-21.3c6.2-5.1,11.1-11.3,14.2-19c14.6-9.2,20.4-50.1,0.4-74.1c1.2-27.4-77.5-47.6-81.7,14.8c-6.5,0.2-13,2.3-17.4,7.3c-7.2,8.3-9,22,1.3,30c-4.8,5.7-6.7,11.1-3.6,16.8c-15.9-2.4-27.6-10.3-33.7-21.2L224,426.8L224,426.8z M219.9,430.9c5.8,12.4,19.5,19.8,36.5,20.4c8.8,8.8,20.6,12.5,33.2,14.2c74,9.9,81.7-82.4,33.3-98.4c-6.8-2.3-14.4-0.5-20.5,2.4c-13.3,6.4-20.4,23.5-6.7,37.6c-0.1,4.2,3,4.8,2.1,2.8c-1.8-4.1,0-6.2,5.7-7.4c7.1-1.5,8.6,7.8,0.1,10.2c-1.5,0.4-2.1,0.4-2.1,1.4c0,4.6,15,0.4,9.5-10.4c-1.7-3.4-5.4-4.6-9.7-4.2c4.5-10,20.4-7.7,22.3,4.4c0.5,3.4,0.5,7.9-2,12.5c-1.9,3.4-4.9,5.4-7.9,6.9c-6.6,3.3-14.6,2.7-21.9-0.9c-6.8-3.4-12.1-10.3-14.2-18.2c1.9-2.2,5.4-3.1,6.6-4.2c0.4-0.3,0.2-1.8-1-2.8c-1.2-0.9-3.5-1.3-6.2-1.5c-0.1-16.8,9.5-29.6,21.4-35.2c6.9-3.2,15.2-4.7,21.2-3.8c10.1,1.4,31.3,7.8,33.6,20.8c-3-2.5-5.8-4.5-11.3-6.1c-1.3-0.4-1,1.7,1,2.6c25.4,11,29.4,46.8,15.9,71.2l0.9-5.6c0.3-1.9-0.9-4.2-1.2-2.3c-2.9,15.4-10.1,26.1-19.3,34.3c-12,10.6-27.6,16.2-44.2,17c-6.1,0.8-14,0.7-21.6,0.1c-17.5-1.5-36-4.6-48.2-1.2c-7.4,4.3-6.6,12.1-0.6,16.6c2.2,1.7,5.6,2,8.8,0.9c-0.3,9-16.4,13-22.7,2.9c-1.4-2.5-2.9-4.2-4.5-5.3c-12.4-3.4-12.1-21.9,2.7-31.5c8.9,4.9,17.3,6.7,24.6,2.8c11.4,4.9,19.3,6.6,18.4,0.3c-1.2-7.1-10.2-7.3-18.9-3.3c-10.9,6.2-27.7-1.5-33.4-11.3c-2.6-4.4-2.4-8.8,1.4-12.9c0.7-0.4,0.7-1.8-0.7-1.9c-0.4,0-2.1-0.7-3.2-1.9c-4.6-4.8-2.7-10.2,2.7-12C206.8,428.2,217.2,430.4,219.9,430.9L219.9,430.9z M197.6,476.6c-0.5,1-0.9,2.1-1.3,3.1C196.7,478.6,197.1,477.6,197.6,476.6L197.6,476.6z M203.3,466.2l1.8,1.6l0,0l0,0c-2.8,2.2-5.3,5.3-7.3,8.4l0,0c-9.9,1-27.5,4.3-40,11.5c-9.3,5.4-14.9,12.6-18.4,19.6c-3.4-1.7-7-2.8-10.6-3.3c3.6-12.5,14.1-26.1,30-34.1C174.3,462.3,192,461.3,203.3,466.2L203.3,466.2z M165.7,518c1.6-4.4,5-7,8.5-8.9c17.1-9.1,41.1,2.6,42.6,26c0.5,7.9-2.4,17.2-8,27.5c-10.6-1.9-18.1,7.7-28.5,9.9c0.9-2.3,1.3-4.3,1.2-6.7c5.2,0.2,8.4-1.4,11.7-3c4.7-2.4,9-6.1,11.1-10.3c3.7-7.4,4.6-15.9,1.5-22.8c-3.5-8-11-13-15.3-6.9c-1.6,2.2-1.7,4.6-2.2,6.4c-1.5,4.8-3.6,6.3-7.5,2.9c-3-2.6-4.8-7.9-1.1-13.3c1.4-2,0.3-2.8-1.1-1.2c-3.8,4.6-3.3,10.2-0.1,15.3C176.3,541.4,158.4,538,165.7,518L165.7,518z M125.2,506.6c22.8-0.8,35.4,25.8,23.2,45.9c-2.5-2.3-4-4.5-5.5-7c3.6-21.8-7.8-30.4-19.5-27.8c-11.4,1.9-26.9,19.1-11.7,26c-5.2,4.9-12.5,2-15-4c-1.1-2.7,0.5-6.1-1.4-6.2c-0.5,0-0.4,5.4-0.5,6c-0.8,1.6-1.5,1.4-4,6.8c-2.5,5.5-8.3,21.3-13.7,27.3c-3,3.3-6.5,4.2-9.2,2.2l7.3-7.5c2-2.1,1-3.7-0.6-1.9c-2.6,3-6.6,6.6-11.3,9.4c-7.9,4.6-16.8,5.1-21.4-1.5c5-0.3,9.7-1.7,14.2-4.4c1.2-0.7,0.8-2.2-0.9-1.3c-1.7,0.9-5.1,2.4-8.9,3c-7.5,1.2-16.6,0-17.2-7.8c4.6,2.2,8.7,2.8,13.5,2.3c1-0.1,1.1-1.7-0.2-1.8c-11.8-0.6-23.3-6.4-28.3-17.9c-4.1-9.4-1.2-15.9,2.8-19.9c7-7,19.8-5.5,20.4,3.3c0.3,4.9-5.8,9.1-14.3,1.9c-9.4,7.4,0.2,19.9,12.9,23.9c0.5,0.2,1.1-0.6-0.1-1.1c-10.7-4.6-16.9-12.4-12.3-18.5c2.1,7.6,5.2,9.9,9.1,12.5c7.9,5.3,19,4.9,30.3,0.3c8-3.4,20.5-14.8,25.8-20.1C103.7,514.1,114.6,507,125.2,506.6L125.2,506.6z M139.5,542.6c3.4,7.5,7.7,12.5,14.2,17.4c3.4,2.6,6.2,2.7,7.3,3.8c1,1-1.8,1.3-5.2,1.3c-3.6,0-7.8-1.8-8.8-2.3c-3-1.5-6.2-4.2-8.1-6c-1.2-1.1-1.5-1.8-1.9-1.5c-0.7,0.5,1.2,2.1,3.1,4.1c2.3,2.6,6.8,5.5,11.3,7.1c8.1,2.9,17.4,2.2,21.9-7.2c2.7-5.6,9.7,6.1,2.9,13c-0.8,0.8-0.6,1.8-0.6,1.8c4.8,4.9,18.6-5.6,23.8-7.4c2.8-1,6.2-0.9,7.9-0.7c11.2,1.6,16.1,9.5,13.4,17.4c-0.5,1.5-0.3,2.6-3.2-0.5c-4.6-4.8-15.7-7.2-22-7.3c-4.5,0-8.5,0.7-11.9,0.9c-7,0.5-12.3,0.5-17.8-0.3c-5.9-0.9-12-3.2-20.5-9.7c-9.5-7.3-15.9-18.3-18.2-28.2c-1.7-7.1-2.3-12.2-2.2-17.7c3.1-1.8,9.4,0.4,11.2,2C135,525.4,136.5,536.2,139.5,542.6L139.5,542.6z M271.9,491.5c26.1,3.4,54.3-3.2,65.3-15c13.5-0.1,17.7,7.6,12.2,15.7c-2.3-5.1-6.5-7.7-13.9-5.6c-19.1,7.2-41.8,31.8-47.5,15.1c-0.2-0.6-0.7-0.6-1.1-0.2c-0.9,0.9-2,1.3-3,1.8c-2.9,1.3-5.9,0.9-8.1-0.8C272.8,500.5,271.2,498.9,271.9,491.5L271.9,491.5z M122.2,521.5c0.8,12.4,4,23.5,9.7,33.4c-13.5,10-26.9,7.3-40.3-3.6c0.8-3.7,2.1-7.1,4.1-10.1c4.3,6.7,8.9,8.5,13.7,7.7c5.5-1.8,8.4-6.2,4.8-7c-3.6-0.8-5.7-2.1-6.2-3.8c-0.6-1.7-0.1-3.6,0.7-5.2C110.9,528.4,117.1,523.6,122.2,521.5L122.2,521.5z M138.4,525.9c3,4.5,3.6,9.6,2.5,14.7C139.3,535.6,138.2,531.1,138.4,525.9L138.4,525.9z M90.6,553c14.4,13.1,30,14.3,44,5.2l4.9,6.1c-17.5,12-35.3,9.6-53.3-0.5L90.6,553L90.6,553z M262.1,434.4c0.9-2.2,0.8-3.6-1.4-4.2c-13.9-3.8-7-33.3,17.2-31.5c-9.4,8.8-12.1,19.1-6.9,31.4c14.1,22.6,48,27,63.7,3.3c5.5-9.3,6.8-18.5,6.4-26.8c-0.5-11.2-4.7-21.4-11.6-27.1c-11.3-9.3-24.8-7.2-33.6,4.4c-2.2,3-3.6,6.8-5.2,11c-1.9-9.6,4.1-19.7,11.8-23.3c15.1-7,30.4,1.8,39.6,14.2c21.7,29.4,1.4,67.2-30.9,74.8c-23.2,5.4-36.9-1.3-49.9-7.7C255.1,449.7,251.1,441.2,262.1,434.4L262.1,434.4z M284.8,440.6c-12.8-4.6-18.8-24-8.9-35c6.4,19,23.8,26.6,36.6,21.7c18.5-7.1,16.2-28.8,5.5-35.1c-7.5-4.4-20.7-0.7-18.5,8c-1.5,0.7-2.8,1.7-3.2,3.7c-6.8-7.5-0.7-18.9,9-24.9c4.1-2.5,9.9-2.8,15-1.7c6.6,1.4,10.6,5.7,13.5,11c7.1,12.7,5.3,32.6-2.4,42.8C319.8,446.4,303.9,448.4,284.8,440.6L284.8,440.6z M230.4,417.9c0.7,3.8-7,8.6-15.7,9.1c-8-0.7-15.6-0.8-20.6,2.9C198.3,407.2,227.7,404.4,230.4,417.9L230.4,417.9z M237.3,472.3c5.6-2.6,11.8-2.9,12.4,0.9C250,475.7,244,474.1,237.3,472.3z"/><path fill-rule="evenodd" fill="#000910" stroke="#000910" stroke-width="0.2835" stroke-miterlimit="22.9256" d="M117.3,471.1c25.7-13.3,58.2-18.1,81.3-11.9c-0.2-0.6-0.4-1.3-0.6-2c-6.6-2.8-16.3-3.7-23.5-3.8c-26.9-0.4-53,9.2-73.1,23.4c-22.8,16.2-37.6,40-32.8,68.7c5.1-4.4,9-7.4,14.4-11.2c3.3-23.9,18.5-42.8,38.3-54.7c3-1.8,6.1-3.4,9.3-4.9c12.4-5.7,43.1-12.6,65.4-11.8c1.6-0.3,2.9-0.5,3.9-0.6c-21.9-1.6-51.7,1.2-68.7,8.7c-34.7,15.2-48.1,38.6-51.4,63.1l-9.2,7.2C67.5,507.8,89.6,485.5,117.3,471.1z"/></g><g><path fill-rule="evenodd" fill="#000910" stroke="#000910" stroke-width="0.2835" stroke-miterlimit="22.9256" d="M260.8,280.9c0.7-4.4,1-8.8,0.6-13c13.3-4.2,4.1-6.5,11.4-17.2c3.2,3.3,5.7,1.8,9-1.1c4.5-3.9,17-6.1,20.5-1.9c2.1-2.8,1.4-5.8-0.3-9c1.5-1.1,3.4,0.3,4.7,2.8c1.3-4.1,1-6.6-0.3-10.1c1,0.4,1.5,0.6,2.3,1.8c0.9-7,1.6-14.4-6.2-15.8c-2.6-2.7-7.2-1.7-12.5,1.1c-4.4-0.6-7.8-0.2-10.1,2.7c-3.7,3.7-9,5.4-13.8,8.4c-3.3,2.1-5.7,5.5-10.1,7.9c-3.6,1.9-11.2,0.2-16,5.2c-0.5-0.7-1.1-1.4-1.6-2c2.3-6.9,0.6-11.7-4.9-14.6c0.5-1.8,0.4-3.5-1-5.3c-5.8,4.3-6.3,3.8-11.4,0.7c0.6-2.7,2.6-3.3,5.1-3.3l-0.2,1.9c3.5-2.2,5.4-5.4,5.8-9.6c10.6-5.9,3.4-11.2-1.2-6c-1.9,2.2-8.5-3.6-11.3-5.5c5.7,0.4,7.2-0.7,11,3.6l2.1-2.4c1.6-0.2,2.8-1.6,3.7-3.6c2.3-2.6,2.6-5.5,1.9-8.4c1.4-4.6,0.7-8.2-3.6-9c-5.1-3.2-11-4.9-17.5-5.5c-4-6.3-6.5-3.7-8.8-4.1l-4.8-0.8c4.9-6.8-2.8-11-8.2-12.5l0.3,2.5c-4.7-3.6-9.8-4-15.1-1.2c-8.9-6.2-21.6-3-26.7,6.2l3.1,0.8c-7.9,3.9-22.2,22-9.9,30c-1.4,1.2-3,2.4-4.6,3.6c-1.5,1.2-3.1,2.3-4.5,3.6c2.2,2.9,5.6,4.7,8.8,3.9c-1.4,3.9-4.4,7.7-5.9,11.9c1-0.1,2.6,0.2,3.3,0.5c-12.8,15,6.3,28.4,10.3,14.2c-8.9,0.9-1.1-6.7,1.2-1.8c1,2.2,0.2,4.4,0.1,6.7c-0.5,6.5-5.3,10.1-11.8,11c2.8,4,7.7,5,12,3.6c-4.1,4.6-3,12,3.8,11.5c-0.2,1.1-0.7,2.9-1.7,4c0.8-0.2,2.2-1.2,2.9-1.6c-1.5,2.2-3.5,5-3.8,8.3c2.2-0.2,4.8-1.9,6.4-3.2c-1,7-0.2,15.2-7.9,21.9c-7.7,6.7-25,16.2-28.6,25.8c-5.3,14.3-16.8,31.7-32.3,32.2c-13.4,0.5-23.2-6.7-28.9-13.4c-19-22.1,0.1-69.2,23.6-72.7c12-1.8,22.7,8.8,15.3,16.6c-2.2-0.3-3.2-2.5-3.8-5.1c-3.2,3.7-1.2,11.1,2.7,13.4c-3.3-1.6-6.1,12.3,2,10.9c-1.7,3.2-3.3,5.1-6.7,4.3c-3.7-0.9-3.9-2.2-2.9-3c1-0.7,1.9,0.4,2.5,1.4c2.2-2,2.7-6-1-6.6c-8.7-1.6-13.5,8.9-3.1,16.1c-3.9,3.9-4.7,8.2-4.2,14c0.4,4.9,3.2,8.8,8.4,10.3c4.7,1.4,7.4-3.6,7.1-8.7c-0.2-4.9-4.8-6.5-7-6.2c2.5-3.2,7.4-6.2,11.2-8.6c0.4-2.5,0.7-3.3,3.3-2.9c3.2-0.3,4.9-3.6,5.9-8.3c2.4,1,4.3,0.1,5.6-2.9c-3-0.4-4.5-1.8-4.9-4c6,1.3,8.2-1.6,7.5-7.6c6.3-5.5,5.2-9.3,0.7-12.3c-0.9,4.6-4.5,7-6,1.6c-2-7.3-6-13.1-11.9-14.7c-4.8-1.3-9.2-3.9-13.9-4.9c-8-1.6-16.2-0.4-22.8,5.1c-11.8,9.9-18,21.6-21.4,34.3c-6.2,23.4-0.6,39.4,11,51.2c8.8,8.9,20.3,12,32.2,12.7c9.9,0.5,20.2-2.8,27.1-6.3c-0.4,2.3-0.7,2.9-1.3,8.5c-1,6.7,0.8,14.4,0.1,21.2c-0.6,5.4-10.3,18.6-14.3,21.1c-4,2.4-3,6.1-2.5,7.9c0.8,11.3-2.4,27.4-2,34.2c0.5,6.8,4.3,6.6,5.5,9.3c1.2,2.8,1.9,3.3,3.6,4.4c2.1,1.6,2.8,3.6,4.1,7.8c3.5,0.2,4.7-4.8,4.9-9.4c6.1,3.9,8-3.5,12.2,2.6l3.5-1.4c4.8-0.8,5.5-12.3-4.7-13.5c-2.9-5.2-8.1-0.2-7.3-6.5l2.9-24.5C154,406,161.3,391,165,379c1.6-5.3,6.3-8.6,8.8-13.8c16.9,4.2,19.9,8.6,16.7,17.4c-1.4,3.9-3.3,10.2-3.4,13.8c-0.4,8.1,7.8,10.3,12.2,9.1c0.8,2.3,4.3,2.6,11.6,1.8c5.2,1.6,11.9,1.6,20.2,0.8c3.6,6.3,11.5,0.5,16.1-3.6c1.1-0.9,1.6-1.2,2.5-3.9c5.4,3.2,8.5,0.2,8.8-3.5c0.8-0.1,1.8,0.5,2.2,1.8c2.2-1.2,2.3-2,2.4-4.2c1.2,1.6,2,1.6,2.5,3.4c3.9-0.2,2.9-6.4,2.5-8.5c-0.4-2.1,0.5-2.3,2.1-0.1c4.8-7.5-5.8-14.7-11.6-9c-1.6-0.6-4.1-0.2-6.8,1.1c-5.8-1.3-10.5-2.2-13.5,2.9c-1.8,3-11,1.6-17.2,1.2c-3.3-0.2-4.5-2.7-6.8-2.6c9.4-18,15.8-40.7,7.3-50c-3.7-4.1-10.3-3.9-21.1-2.8c28.4-14.8,10.8-17.5,46.5-29.1c7.5,3.7,13.1,12.7,20.1,14.2c2.2,3.1,5.3,7.1,9,6.8c0.5,0,1.5-0.8,2.3-0.4c1.4,0.6,2.2-0.3,3-1.2c1.8,3.1,5,3.2,8.6-1.2c4.4-2.4,7-7.3,7.5-12.6c2.2-1.6,3.1-4.3,3.1-7.4c1.1-1.7,3.1-2.2,5.2-2c0.1-2.2-1.2-3.4-3.1-4.1c3.9-3.7,5.4-8.2,1.6-12.8c0.4-0.7,1.4-1.3,2.5-1.7c-3.5-4-8.2-5.1-11.4-2.7c-3.3,2.5-3.2,4-3.4,6.6c-5.8,0.7-9.8,4.5-11,11.7C273.4,293.2,267.5,286.5,260.8,280.9z"/><path fill-rule="evenodd" fill="none" stroke="#000910" stroke-width="0.7087" stroke-miterlimit="22.9256" d="M184.5,202.1c-0.3-0.2-0.6-0.4-0.8-0.6c-0.3-0.3-0.6-0.5-0.9-0.8c-2.1-2.4-1.5-5.9,0.6-10.1l-8.1,2.8l4.7-5.6l-8.3,0.5c7.2-4.8,1.4-4.8-10.1-2.6l-0.5,0.1"/><path fill-rule="evenodd" fill="none" stroke="#000910" stroke-width="0.7087" stroke-miterlimit="22.9256" d="M190,180.3c-1.8-2.4-6.5-3.2-11.2-1l-17.2,6.5l-0.4,0.1l-0.7,0.3c-6.5,2.8-8.1,9.9-3.3,16l6.5,5.4l17.8,0.5"/><path fill-rule="evenodd" fill="none" stroke="#000910" stroke-width="0.7087" stroke-miterlimit="22.9256" d="M204.9,177.5l0.2,0.1c3.8,1.1,6.8,2.3,2.9,4l-5.9,2"/><path fill-rule="evenodd" fill="none" stroke="#000910" stroke-width="0.7087" stroke-miterlimit="22.9256" d="M208,185.8L208,185.8l0.1,0.1l1.1,0.8c-1.3,1.5-2.9,2.2-5.6,2.1"/><path fill-rule="evenodd" fill="#A68E6A" stroke="#000910" stroke-width="0.7087" stroke-miterlimit="22.9256" d="M155.8,244.2c3-5.3,3.1-13.1,0.4-15.1c-7.3-5.4-10.2,5.1-3.2,5c-5.5,7.6-18.5-1.9-4.7-18.8c-1.5,0-2.8,0.3-4.8,1c2.6-4.1,4.4-8.1,6.1-12.7c-2.6,1.3-5.3,1.1-8.1-1.3c1.3-1,3.5-2,5.2-3.6c2.6-2.5,4.6-6.4,2.9-10.9c0.2,1.7-0.4,4.1-1.2,6c-11.5-8.8,5.5-26.2,14.3-31l-4.8,0.2c7-6.7,14.2-8.2,21.7-3.7c-5.2,3.2-11.1,6.6-12.4,11.4c3.8-5.7,22.3-20.5,31.3-7.1c1-1.9,0.5-2.2-0.8-4c3.4,0,9.6,5,3.5,8.3c1.1-1.5,1.6-3.8,0.2-4.7c-0.7,6.7-4.3,3.6-7.8,1.4c1.3,2,2.7,3.6,5.2,4.7c2.7,1,6.2,1.8,9.4,2.2c4.1-1.1,5.9-0.2,8.3,3.5c6.4,0.8,13,3.2,18.7,6c2.8,0.3,2.3,3,1.9,5.4c-1.4-2.1-2.8-2.9-4.1-1.4c-1.3-0.4-3.4-0.3-3.4-1.6c0.1-1.3,1.6-0.6,3.3-1.1c-1.1-0.9-2.7-1-3.5-0.4c-3.3,2.1,0.5,5.3,4,4.3c0.4-1.3,2.5-0.8,1.3,0.5c0.5-0.5,2.1-0.2,1.5,1c5.3,8.2-6.3,8.6-11.5,7.8c-6.3-0.9-11,8.6-9.6,12.7c0.8,2.3,2.9,3.5,5.1,2.3c2.5-1.3,14.6-3.5,8.2,5.6c-2.1,0-4,0.7-6.1,1.7c0-1-0.1-2.1-0.5-2.7c-0.3,0.9-1.6,2-2.8,2.6c-1.1-3.5-3.5-4-7-4.3c-3.8-0.4-8-7.9-9.3-14c-0.7,11,5.1,15.1,9.8,16c3.5,0.7,5.9,1.8,4.2,4.3c1.4,0.1,3.1-0.6,4.1-1.7c0.3,1.1-0.1,2.1-1.2,2.9c-1,3.1,1.4,2.7,2.2,3.1c4.2,2.3,7.5,2.4,10.7-1c1,1.9,0.5,3.6-1,5c5.1-0.4,9.3,7,5.2,11.9c0.3-2.4-0.5-4-2.6-4.2c-7.1-0.7-6.1,11.3,2.1,13.5c0.2,0.3-6,1-9.2-0.7c0.3-11.1-10.2-5-12.2-15.7c-2.4,12.1,18.7,5.2,7.9,23.1c0.8-11.1-19.3-15.7-19.1,0.5c-2-2.3,0.6-9.4-5.3-7.2c1.8,0.2,2.8,1.4,2.8,2.8c0.1,3.7,1,5.3,3.8,7.6c-0.4-5.2-0.4-8.9,1.9-10.5c6-4.3,17.5,1.3,14.1,9.7c2.8-1.2,5-5.5,6.3-8.4c7.1,1.5,11.1,0.7,12-2.3c-2.6,0-4.9-0.8-6.7-2.7c-6.3-8.2,6.2-13.3,2.2-1.7c2.2-3.1,4.2-2.4,4.8,2.7c4.1-4.5,9.9-6,18.5-7.3c3.2-3.7,7.9-7.4,12.1-9.2l9.8-5.3c1.7-4.1,5.1-4.9,10.3-4.3c2.5-1.3,6.8-3.5,9.7-2.6c-0.8,0.6-1.3,1.2-1.3,1.9c6.3-4.1,9.6,4.5,9.1,10.3c-2.1-4.9-3.8-4.5-5.5-4.4c-1,0-2.1-0.4-3.2-1.3c-0.6-0.6-1.5-2.2-1.5-3.1c-3,3.6,3.2,5.5,3.9,5.7c-3.1-0.1-6.3-0.8-9.5-2.1c2.8,2.3,5.4,2.7,8.5,3c-0.5,0.2-1,0.5-1.5,0.8c5.1-0.4,7.7,5,7.4,9.4c-2.7-3.3-10.2-1.2-8.8-7.8c-4.1,4.5,1.5,5.7,4.9,7c-2,1.6-2.7-0.1-4.9-0.5c-2.2-0.4-4-1.4-3.2-4.2l-1.2,1.4c-1.4-0.4-2.7-0.3-4,0.2c1.7,0.1,3.4,1,4.6,2c-1.4,0.6-2.5,0.9-3.1,1.7c5.3-1.5,14,0.8,11.5,7.6c-3.8-3.7-9,0.8-12.2-6.4c-0.5,2.2,0.7,3.9,2.1,4.4c-3,2.5-8.2,2-8.6-1.3c-0.5,1.9,0.4,3.2,1.7,3.9c-1.2,0.2-3,0.7-3.9,1.8c-2.7,3.6-6.4,5.4-7.3-2c-0.3,2.9-1.5,4.2-3.7,5.1c-4.1,6.7,3.6,12.6-14.3,17.5c-1.6,2.2-3.5,4-6.1,4.4c0.3-0.5,1.5-2.4,0.9-3.7c-0.5,0.7-1.2,1-2,1c-7-1.3-28.5-3.5-35.9-2.8c-6.1,0.5-12.7,0.9-21.4-3c5.5,4.5,11.9,6.2,20,5.2c6.5-0.8,30,0.4,37.3,2.5c-0.3,1-0.8,1.9-1.8,2.7c4.4,0,9.2-2.7,13.2-6c0.1,12-3,23.6-13.2,30.8c-9,3.5-15.3,4.4-20,7.3c-13.2,8-15.3,16.8-37.1,26.9c-14.9,8.9-13,19.8-18.5,33.5c-1.1,2.8-4.1,5.2-5.5,7.9c-9.8,19.9-20.2,31.4-39.7,39.6l-3.4,25c-1,9.8,5.5,3.8,8.4,9.4c5.1-0.3,9.6,6.1,5.5,9.3c-0.5-3.5-0.4-7.6-5.4-7c3.3,1.2,4.9,4.4,2.8,9.2c-1.8-5.3-9.7,2.4-6.2-8c-3.4,1.4-2.4,4-2,6.9c-7.7,1.7-1-11.8-9.7-13c-2.4-0.4-3.2-2.1-3.1-4.7c-4.8,10.1,9.8,2.7,6.1,15.9c0.2,3.9,0,8.4-1.9,9.2c-0.6-1.7-1.1-4.6-2.7-6.1c-2.1-2.5-2-5.2-0.4-7.9c-2.7,0.6-2.5,4.1-2.5,5.8c-1-0.9-1.6-1.8-1.8-2.9c-3.9-2.4-5.7-5.8-5.3-11.7c1.3-12,2.3-19.6,1.7-30.1c-0.1-2.3-1.8-5.1,3.6-8.2c5.9-4.5,9.7-10.9,12.7-18c0.4,1.3,0.8,2.1,1.2,5c1-6.9,0-10.2-0.6-17c-2-15,3.1-29.9,12.1-41.8c1.8-2.4,2.8-3.6,6-6.8c-6.4,2.8-11.3,12.3-16.7,19.4c-2.3,3-5.3,5.1-7.8,7.2c2.7-1.2,5.4-2.6,7.6-4.6c-0.3,1.2-0.4,2-1.2,3.2c-15.4,11-55.3,10.1-67.1-18c-7-16.6-4.7-39.4,7.3-57.3c11.5-17.2,23.3-19.9,34-17.7c7.7,2.7,12.8,7.1,16.9,13.9c-0.8-3.5-3.9-6.9-7-10.3c6.7,2,9.6,4.7,12,10.9c0.6,1.7,1.3,3.6,2.1,5.3c1.4,2.8,4.7,5.5,7.7-1.1c2,4.4,1.1,7.3-4.3,8.7c3.1,3.9,0.2,8.9-4.1,5.9c4.2-1.3-1.8-6.7-3,0.3c-0.6,3.9,2.6,6.1,5.3,7.5c-4.8,2-7.5-2-8.4-6.3c-0.4,2.4,0.4,6.5,2.9,7.6c0.2,4.1-2.8,6.9-5.6,8.1c0.6-1.7,0.6-3.3,0.4-4.9c-2.7,14-17.6,11.6-15.1,21.6c1,3.9,6,2.2,2.5-2.3c4.6-1,7.6,6.8,3.2,9.3c-1.1,0.6-2.8,0-4.2-0.9c0.8,1.4,2.3,2,4.1,2.1c-3.3,2.6-6.8,0-8.6-3c-1.4-2.4-1.6-4.9-1.6-7c-0.3-17.3,18.3-11.3,18.6-24.3c-0.8,1.4-2.1,5.3-5,6.8c-2.8,1.5-6.4,3.6-11.2-1.2c0.4,1.8,1,3.6,3.9,4c-5.9,4.6-11.5-8-5.1-11.4c1.6-0.9,3.3-0.9,4.3-0.4c1.7,0.8,2,2.1,0.8,3.4c-3.6-3.9-6.3,1.7-2,4c1.7,0.9,3.6,1.2,5.8,0.8c2.5-0.5,5-1.8,6.4-7.3c1.4-5.3-4.9-5.7-2.7,0.3c-4.1,0.3-4.9-5.6,0.1-10.8c-3.6-1-6-4.1-4.9-9c2.8,5.6,5.8,4.5,7.9-2.6c1.7,3.1,2.8,7.4,3.4,9.8c1.1-14.1-12.2-30-29.1-22.4c-7.8,3.5-13,9.7-16.9,15.7c-4.5,6.9-7.1,14-8.5,22.4c-1.1,11.9-1.5,23.3,3,31.1c5.9,10,16.9,17.4,28.3,18.7c9.7,1.1,19.9-2.1,29.3-13.6c5-6.1,7.4-13.1,9.5-19c1.4-3.7,4.6-6.4,6.8-8.2c9.3-8.7,19-12.5,24.8-20c3-4,4.3-9.2,5.4-16.2c2.8-15.4,2-4,10.4-10.8c-5.8-0.9-6.2-4.6-4.2-8.5c-3.8,4.1-2.4,5.6,0.6,9c-3.1,1.6-5.1-0.6-5.7-2.7c-1-3.3,0.7-8,1-9.8c-4.9,11.9-1.3,8.5-1.6,13.7c-0.1,1.7-1.8,4.1-6.5,5.5c1.6-2.5,2.9-5.1,3.4-8.3l-0.9,0.5l-1,0.5c0.1-0.9,0.5-2.3,1.2-3.4c-3.9,2.3-7.9-0.6-5.9-6c2.6-4.3,8-11.4,9.7-15.2c2-4.2,2.7-9.9-0.6-15.3c3.6,10.8-2.6,17-8.1,25.5c-4.4,0.7-7.7,0.7-9.5-0.5C150.9,249.5,154,247.4,155.8,244.2z"/><path fill-rule="evenodd" fill="#A68E6A" stroke="#000910" stroke-width="0.7087" stroke-miterlimit="22.9256" d="M284.6,295.9c-2.9-3.5,2.3-10,9.4-11.8c-0.2-4.7,2.9-8.1,8.8-7.1c1.2,0.2,1.6,1,2.2,1.8c-5.3,0.2-0.6,7.1-8.8,7.7c3.4,1.2,5.9-0.2,7-4.8c2.9,3.2,2.7,6.9-1.7,11.4c-2.5,1.2-4.7-1.2-8.2-0.6c-9.3,1.7-1.6,11.1-8.5,15.4c5.3,0,4.7-7.3,5.1-11.2c0.3-1,3.2-3.2,4.7-3.2c-1.1,0.7-1.6,1.6-1.4,2.2c0.7-1.1,7.9-3.1,11.4,0.6c-3.2-0.7-5.2,4.1-10.6,2.7c1.4,2.4,2.9,2.3,5.6,0.6c-0.1,4-1.2,5.9-3.5,6.3c0.2,5.4-2.2,9-6.1,11.7c-2.3,2.7-4.5,5.1-6.4,2.6c-3.1-4.7-1.6,3.5-7.9-1.6c2.6,5-5.3,0.4-6.9-4.6c-4-0.1-6.2-3.3-8.9-5.6l-11.2-8.6c6.5-3.6,9.8-9.7,11.8-16.9C264.9,287,277.7,299.1,284.6,295.9z"/><path fill-rule="evenodd" fill="#A68E6A" stroke="#000910" stroke-width="0.7087" stroke-miterlimit="22.9256" d="M207.4,331.5c13-0.2,17.2,5.1,17.1,13.4c-0.1,16.2-11.6,36.9-12.5,41.3c1.8-3.2,4.4-0.6,8.9,1.7c6.2,0.1,15.6,2,19.9-2.9c2.7-3,7.2-2.6,11.1-1.2c2.5-1.3,5.1-1.7,7.9-1.3c3.6-3.2,10.6-1.2,10.2,4.4c-4.6-2.3-4.8,4.6-9.6,1.3c0.9,2.6,4,2.2,6.2,0.6c-0.2,2-0.8,4.1-3.3,3.8c-4.4-0.6-3.6-2.7-5.8-4c-2.8-1.8-6.2,4.3-9.2,3.2c1,2,3-1.5,5.6-2c3.3-0.6,5.4,1.8,7,4.1c0.7,1.3,0.5,2.5,0,3.7c-0.5-0.6-1.1-1.2-2-1.4c-1.4,0.1-2.2,0.3-3.3,1c-1.7,1.1-3.8-1.5-3.9-3.9c-1,3.7,1.5,6.5,5.9,4.5c-0.7,3.7-4.8,4.4-9,1.7c-0.1,2.2-1.9,4.8-3.5,4.6c-10.2,9.6-10.8,3.4-13,3c-5.1-0.9-11.3,0.6-17.5-1.6c-10.3,1.8-16.4,1.4-15.2-8.1c-0.8,2.3-2.4,4.4-1.2,6.8c-9.6,0.4-11.3-6.8-6.5-18.9c2.6-6.4,1.9-12.1-1.9-15.4c4.7-0.5,6.2-1.8,7-3.2c-4.8,3.7-13.4,0.9-22.9-3.3c3.8-15.2,9.3-23.6,18.7-15.8C184.5,334.4,195.4,331.6,207.4,331.5z"/><path fill-rule="evenodd" fill="#8F5946" stroke="#000910" stroke-width="0.7087" stroke-miterlimit="22.9256" d="M218,209.4c-2.8-1.1-0.9-8.5,1-9c1.9-0.4,9.2,8.2,12.9,5.6c2.7-1.9,5.4-1.7,2.5,1.6c-2,2.3-7.3-0.1-10,0.1C221.7,207.9,219.4,210,218,209.4z"/><path fill-rule="evenodd" fill="#FFFFFF" stroke="#000910" stroke-width="0.7087" stroke-miterlimit="22.9256" d="M220,198.2c0.3-0.4,1-1.1,1.9-1.3c2.1-0.5,5.1-0.2,6.4,0.3l0.2,1.7C227.4,198.2,221.3,198.1,220,198.2z"/><path fill-rule="evenodd" fill="#FFFFFF" stroke="#000910" stroke-width="0.7087" stroke-miterlimit="22.9256" d="M229.4,199.2l-0.2-2c2-0.1,4.5-0.6,5.9-1.2c-0.3,1.1-1.2,2.1-2.8,2.3c0,0.9-0.6,1.6-1.3,2.4C230.6,199.8,230.4,199.7,229.4,199.2z"/><path fill-rule="evenodd" fill="#A68E6A" stroke="#0F1823" stroke-width="0.5669" stroke-miterlimit="22.9256" d="M266.6,396.5c-0.6-1.9-1.3-3-2.5-2.7c0.8-0.7,2-1.3,2.6-2C267.5,393.9,267.3,395.6,266.6,396.5z"/><path fill-rule="evenodd" fill="#000910" stroke="#000910" stroke-width="0.7087" stroke-miterlimit="22.9256" d="M222.1,185.7c-4.2,0.1-5.6,4.1-5.3,7.3c0,0.4-4.7,2.9-5.5,7.6c2.4-4.2,4.4-4.8,6.9-7c3,2.2,4.5,1.6,7.8,0.9c-3.7-0.2-2.8,0-4.8-0.6c-5-1.6-3.1-6.4,1.7-5.1c0.8,0.2,1.6,1.1,2.7,1.6c0.8,0.4,2.8,0.8,3.7,0c-4.3,0.1-5-3.4-8.8-3C220.6,187.1,221.2,186.5,222.1,185.7z"/><path fill-rule="evenodd" fill="#000910" stroke="#000910" stroke-width="0.7087" stroke-miterlimit="22.9256" d="M214.7,191.9c0.9-4,2.2-7.3,4.1-8.3c-2.8-0.1-3.7,2.8-4.5,5.9c-0.3,1.3-1.1,3.3-6,4.9c-1.3,0.4-2.2,3.6-2,4.8C208.2,193.7,212.3,196.1,214.7,191.9z"/><path fill-rule="evenodd" fill="#000910" stroke="#000910" stroke-width="0.7087" stroke-miterlimit="22.9256" d="M198.7,243.3c5-10.2,0.4-13.5-6.1-21.1c-2.7-4.1,1.2-7.1,5.1-10.5c-4.2,1.2-9.6,5.7-6.5,11.7c2.7,4.5,6.3,6.9,7.4,9.4C200.4,236.3,199,239.2,198.7,243.3z"/><path fill-rule="evenodd" fill="#000910" stroke="#000910" stroke-width="0.7087" stroke-miterlimit="22.9256" d="M281.7,307.9c-0.7-2.6-2.9-4.8-10.4-5.2l1.8,2C276.8,304.6,279.5,305.9,281.7,307.9z"/><path fill-rule="evenodd" fill="#000910" stroke="#000910" stroke-width="0.7087" stroke-miterlimit="22.9256" d="M266.5,307.8c-3.6-3.2-1.7-3.7-7.7-7.7c2.7,2.5,4,6.1,7.2,9.6c3,3.2,6.8,4.3,10.5,1.5C272.8,311.9,269.9,310.8,266.5,307.8z"/><path fill-rule="evenodd" fill="#000910" stroke="#000910" stroke-width="0.7087" stroke-miterlimit="22.9256" d="M193.3,398.9c-1.2-13.7,13.7-9.2,8.6-30.9c-0.9,14.5-2.5,7-7.9,20.8C193,391.5,192.3,396.9,193.3,398.9z"/><path fill-rule="evenodd" fill="#000910" stroke="#000910" stroke-width="0.7087" stroke-miterlimit="22.9256" d="M107.5,411.7c0.1,6.2,9,2.6,10.7-6.6c3.3-2.5,4.2-4.3,6.4-9.1l-8.1,9.1C114.4,410.4,110.7,414.6,107.5,411.7z"/><path fill-rule="evenodd" fill="#000910" stroke="#000910" stroke-width="0.7087" stroke-miterlimit="22.9256" d="M205.6,399.6c1.7,1.5,6.5,1.8,11.1,1.5c3-0.2,5.9,0.6,8,1.2c-1.8-3.1-6.6-2.9-10.6-2.1c-1.2,0.2-2.9-0.1-3.9-0.1c-1.2-3-4-4.9-7.7-4.3c2,0.7,4.3,2.2,5.2,4L205.6,399.6z"/><path fill-rule="evenodd" fill="none" stroke="#000910" stroke-width="2.126" stroke-miterlimit="22.9256" d="M184.5,202.1c-4-2.3-3.7-6.4-1.1-11.5l-8.1,2.8l4.7-5.6l-8.3,0.5c7.3-4.9,1.2-4.8-10.6-2.5 M190,180.3c-1.8-2.4-6.5-3.2-11.2-1l-18.2,6.9c-6.5,2.8-8.1,9.9-3.3,16l6.5,5.4l17.8,0.5"/><path fill-rule="evenodd" fill="none" stroke="#000910" stroke-width="2.126" stroke-miterlimit="22.9256" d="M204.9,177.5c3.9,1.1,7.1,2.4,3.1,4.1l-5.9,2"/><path fill-rule="evenodd" fill="none" stroke="#000910" stroke-width="1.4173" stroke-miterlimit="22.9256" d="M208,185.8l1.2,0.9c-1.3,1.5-2.9,2.2-5.6,2.1"/><path fill-rule="evenodd" fill="#000910" stroke="#000910" stroke-width="0.5669" stroke-miterlimit="22.9256" d="M203.3,183.7c1.7,2.8,3.3,3.2,4.4,2.5c1.3-0.8,2-3.1,1.2-4.6L203.3,183.7z"/><path fill-rule="evenodd" fill="#000910" stroke="#000910" stroke-width="0.7087" stroke-miterlimit="22.9256" d="M176.6,258.3c0.9,2.3,1.1,4,0.6,6.5c4.5-7.3,9.8-9.1,16.4-8.7c-0.7,2.1-2.5,3.7-4.5,5.3c3.4,0.5,8.1-0.9,10.5-5.2c-2.3,1.9-4.5,3.3-7.4,4.1c2.2-2.1,2.4-4.2,2.3-6.5c-5.8-0.3-11.2,1.3-16,7.2C178.7,259.7,178,258.8,176.6,258.3z"/></g><g><path fill-rule="evenodd" fill="#000910" stroke="#000910" stroke-width="0.2835" stroke-miterlimit="22.9256" d="M582.1,281.5c-0.7-4.4-1-8.8-0.6-13c-13.3-4.2-4.1-6.5-11.4-17.2c-3.2,3.3-5.7,1.8-9-1.1c-4.5-3.9-17-6.1-20.5-1.9c-2.1-2.8-1.4-5.8,0.3-9c-1.5-1.1-3.4,0.3-4.7,2.8c-1.3-4.1-1-6.6,0.3-10.1c-1,0.4-1.5,0.6-2.3,1.8c-0.9-7-1.6-14.4,6.2-15.8c2.6-2.7,7.2-1.7,12.5,1.1c4.4-0.6,7.8-0.2,10.1,2.7c3.7,3.7,9,5.4,13.8,8.4c3.3,2.1,5.7,5.5,10.1,7.9c3.6,1.9,11.2,0.2,16,5.2c0.5-0.7,1.1-1.4,1.6-2c-2.3-6.9-0.6-11.7,4.9-14.6c-0.5-1.8-0.4-3.5,1-5.3c5.8,4.3,6.3,3.8,11.4,0.7c-0.6-2.7-2.6-3.3-5.1-3.3l0.2,1.9c-3.5-2.2-5.4-5.4-5.8-9.6c-10.6-5.9-3.4-11.2,1.2-6c1.9,2.2,8.5-3.6,11.3-5.5c-5.7,0.4-7.2-0.7-11,3.6l-2.1-2.4c-1.6-0.2-2.8-1.6-3.7-3.6c-2.3-2.6-2.6-5.5-1.9-8.4c-1.4-4.6-0.7-8.2,3.6-9c5.1-3.2,11-4.9,17.5-5.5c4-6.3,6.5-3.7,8.8-4.1l4.8-0.8c-4.9-6.8,2.8-11,8.2-12.5l-0.3,2.5c4.7-3.6,9.8-4,15.1-1.2c8.9-6.2,21.6-3,26.7,6.2l-3.1,0.8c7.9,3.9,22.2,22,9.9,30c1.4,1.2,3,2.4,4.6,3.6c1.5,1.2,3.1,2.3,4.5,3.6c-2.2,2.9-5.6,4.7-8.8,3.9c1.4,3.9,4.4,7.7,5.9,11.9c-1-0.1-2.6,0.2-3.3,0.5c12.8,15-6.3,28.4-10.3,14.2c8.9,0.9,1.1-6.7-1.2-1.8c-1,2.2-0.2,4.4-0.1,6.7c0.5,6.5,5.3,10.1,11.8,11c-2.8,4-7.7,5-12,3.6c4.1,4.6,3,12-3.8,11.5c0.2,1.1,0.7,2.9,1.7,4c-0.8-0.2-2.2-1.2-2.9-1.6c1.5,2.2,3.5,5,3.8,8.3c-2.2-0.2-4.8-1.9-6.4-3.2c1,7,0.2,15.2,7.9,21.9c7.7,6.7,25,16.2,28.6,25.8c5.3,14.3,16.8,31.7,32.3,32.2c13.4,0.5,23.2-6.7,28.9-13.4c19-22.1-0.1-69.2-23.6-72.7c-12-1.8-22.7,8.8-15.3,16.6c2.2-0.3,3.2-2.5,3.8-5.1c3.2,3.7,1.2,11.1-2.7,13.4c3.3-1.6,6.1,12.3-2,10.9c1.7,3.2,3.3,5.1,6.7,4.3c3.7-0.9,3.9-2.2,2.9-3c-1-0.7-1.9,0.4-2.5,1.4c-2.2-2-2.7-6,1-6.6c8.7-1.6,13.5,8.9,3.1,16.1c3.9,3.9,4.7,8.2,4.2,14c-0.4,4.9-3.2,8.8-8.4,10.3c-4.7,1.4-7.4-3.6-7.1-8.7c0.2-4.9,4.8-6.5,7-6.2c-2.5-3.2-7.4-6.2-11.2-8.6c-0.4-2.5-0.7-3.3-3.3-2.9c-3.2-0.3-4.9-3.6-5.9-8.3c-2.4,1-4.3,0.1-5.6-2.9c3-0.4,4.5-1.8,4.9-4c-6,1.3-8.2-1.6-7.5-7.6c-6.3-5.5-5.2-9.3-0.7-12.3c0.9,4.6,4.5,7,6,1.6c2-7.3,6-13.1,11.9-14.7c4.8-1.3,9.2-3.9,13.9-4.9c8-1.6,16.2-0.4,22.8,5.1c11.8,9.9,18,21.6,21.4,34.3c6.2,23.4,0.6,39.4-11,51.2c-8.8,8.9-20.3,12-32.2,12.7c-9.9,0.5-20.2-2.8-27.1-6.3c0.4,2.3,0.7,2.9,1.3,8.5c1,6.7-0.8,14.4-0.1,21.2c0.6,5.4,10.3,18.6,14.3,21.1c4,2.4,3,6.1,2.5,7.9c-0.8,11.3,2.4,27.4,2,34.2c-0.5,6.8-4.3,6.6-5.5,9.3c-1.2,2.8-1.9,3.3-3.6,4.4c-2.1,1.6-2.8,3.6-4.1,7.8c-3.5,0.2-4.7-4.8-4.9-9.4c-6.1,3.9-8-3.5-12.2,2.6l-3.5-1.4c-4.8-0.8-5.5-12.3,4.7-13.5c2.9-5.2,8.1-0.2,7.3-6.5l-2.9-24.5c-27.1-10.4-34.4-25.4-38-37.4c-1.6-5.3-6.3-8.6-8.8-13.8c-16.9,4.2-19.9,8.6-16.7,17.4c1.4,3.9,3.3,10.2,3.4,13.8c0.4,8.1-7.8,10.3-12.2,9.1c-0.8,2.3-4.3,2.6-11.6,1.8c-5.2,1.6-11.9,1.6-20.2,0.8c-3.6,6.3-11.5,0.5-16.1-3.6c-1.1-0.9-1.6-1.2-2.5-3.9c-5.4,3.2-8.5,0.2-8.8-3.5c-0.8-0.1-1.8,0.5-2.2,1.8c-2.2-1.2-2.3-2-2.4-4.2c-1.2,1.6-2,1.6-2.5,3.4c-3.9-0.2-2.9-6.4-2.5-8.5c0.4-2.1-0.5-2.3-2.1-0.1c-4.8-7.5,5.8-14.7,11.6-9c1.6-0.6,4.1-0.2,6.8,1.1c5.8-1.3,10.5-2.2,13.5,2.9c1.8,3,11,1.6,17.2,1.2c3.3-0.2,4.5-2.7,6.8-2.6c-9.4-18-15.8-40.7-7.3-50c3.7-4.1,10.3-3.9,21.1-2.8c-28.4-14.8-10.8-17.5-46.5-29.1c-7.5,3.7-13.1,12.7-20.1,14.2c-2.2,3.1-5.3,7.1-9,6.8c-0.5,0-1.5-0.8-2.3-0.4c-1.4,0.6-2.2-0.3-3-1.2c-1.8,3.1-5,3.2-8.6-1.2c-4.4-2.4-7-7.3-7.5-12.6c-2.2-1.6-3.1-4.3-3.1-7.4c-1.1-1.7-3.1-2.2-5.2-2c-0.1-2.2,1.2-3.4,3.1-4.1c-3.9-3.7-5.4-8.2-1.6-12.8c-0.4-0.7-1.4-1.3-2.5-1.7c3.5-4,8.2-5.1,11.4-2.7c3.3,2.5,3.2,4,3.4,6.6c5.8,0.7,9.8,4.5,11,11.7C569.5,293.7,575.4,287.1,582.1,281.5z"/><path fill-rule="evenodd" fill="none" stroke="#000910" stroke-width="0.7087" stroke-miterlimit="22.9256" d="M658.4,202.7c0.3-0.2,0.6-0.4,0.8-0.6c0.3-0.3,0.6-0.5,0.9-0.8c2.1-2.4,1.5-5.9-0.6-10.1l8.1,2.8l-4.7-5.6l8.3,0.5c-7.2-4.8-1.4-4.8,10.1-2.6l0.5,0.1"/><path fill-rule="evenodd" fill="none" stroke="#000910" stroke-width="0.7087" stroke-miterlimit="22.9256" d="M652.9,180.9c1.8-2.4,6.5-3.2,11.2-1l17.2,6.5l0.4,0.1l0.7,0.3c6.5,2.8,8.1,9.9,3.3,16l-6.5,5.4l-17.8,0.5"/><path fill-rule="evenodd" fill="none" stroke="#000910" stroke-width="0.7087" stroke-miterlimit="22.9256" d="M638,178.1l-0.2,0.1c-3.8,1.1-6.8,2.3-2.9,4l5.9,2"/><path fill-rule="evenodd" fill="none" stroke="#000910" stroke-width="0.7087" stroke-miterlimit="22.9256" d="M634.9,186.3L634.9,186.3l-0.1,0.1l-1.1,0.8c1.3,1.5,2.9,2.2,5.6,2.1"/><path fill-rule="evenodd" fill="#A68E6A" stroke="#000910" stroke-width="0.7087" stroke-miterlimit="22.9256" d="M687.1,244.8c-3-5.3-3.1-13.1-0.4-15.1c7.3-5.4,10.2,5.1,3.2,5c5.5,7.6,18.5-1.9,4.7-18.8c1.5,0,2.8,0.3,4.8,1c-2.6-4.1-4.4-8.1-6.1-12.7c2.6,1.3,5.3,1.1,8.1-1.3c-1.3-1-3.5-2-5.2-3.6c-2.6-2.5-4.6-6.4-2.9-10.9c-0.2,1.7,0.4,4.1,1.2,6c11.5-8.8-5.5-26.2-14.3-31l4.8,0.2c-7-6.7-14.2-8.2-21.7-3.7c5.2,3.2,11.1,6.6,12.4,11.4c-3.8-5.7-22.3-20.5-31.3-7.1c-1-1.9-0.5-2.2,0.8-4c-3.4,0-9.6,5-3.5,8.3c-1.1-1.5-1.6-3.8-0.2-4.7c0.7,6.7,4.3,3.6,7.8,1.4c-1.3,2-2.7,3.6-5.2,4.7c-2.7,1-6.2,1.8-9.4,2.2c-4.1-1.1-5.9-0.2-8.3,3.5c-6.4,0.8-13,3.2-18.7,6c-2.8,0.3-2.3,3-1.9,5.4c1.4-2.1,2.8-2.9,4.1-1.4c1.3-0.4,3.4-0.3,3.4-1.6c-0.1-1.3-1.6-0.6-3.3-1.1c1.1-0.9,2.7-1,3.5-0.4c3.3,2.1-0.5,5.3-4,4.3c-0.4-1.3-2.5-0.8-1.3,0.5c-0.5-0.5-2.1-0.2-1.5,1c-5.3,8.2,6.3,8.6,11.5,7.8c6.3-0.9,11,8.6,9.6,12.7c-0.8,2.3-2.9,3.5-5.1,2.3c-2.5-1.3-14.6-3.5-8.2,5.6c2.1,0,4,0.7,6.1,1.7c0-1,0.1-2.1,0.5-2.7c0.3,0.9,1.6,2,2.8,2.6c1.1-3.5,3.5-4,7-4.3c3.8-0.4,8-7.9,9.3-14c0.7,11-5.1,15.1-9.8,16c-3.5,0.7-5.9,1.8-4.2,4.3c-1.4,0.1-3.1-0.6-4.1-1.7c-0.3,1.1,0.1,2.1,1.2,2.9c1,3.1-1.4,2.7-2.2,3.1c-4.2,2.3-7.5,2.4-10.7-1c-1,1.9-0.5,3.6,1,5c-5.1-0.4-9.3,7-5.2,11.9c-0.3-2.4,0.5-4,2.6-4.2c7.1-0.7,6.1,11.3-2.1,13.5c-0.2,0.3,6,1,9.2-0.7c-0.3-11.1,10.2-5,12.2-15.7c2.4,12.1-18.7,5.2-7.9,23.1c-0.8-11.1,19.3-15.7,19.1,0.5c2-2.3-0.6-9.4,5.3-7.2c-1.8,0.2-2.8,1.4-2.8,2.8c-0.1,3.7-1,5.3-3.8,7.6c0.4-5.2,0.4-8.9-1.9-10.5c-6-4.3-17.5,1.3-14.1,9.7c-2.8-1.2-5-5.5-6.3-8.4c-7.1,1.5-11.1,0.7-12-2.3c2.6,0,4.9-0.8,6.7-2.7c6.3-8.2-6.2-13.3-2.2-1.7c-2.2-3.1-4.2-2.4-4.8,2.7c-4.1-4.5-9.9-6-18.5-7.3c-3.2-3.7-7.9-7.4-12.1-9.2l-9.8-5.3c-1.7-4.1-5.1-4.9-10.3-4.3c-2.5-1.3-6.8-3.5-9.7-2.6c0.8,0.6,1.3,1.2,1.3,1.9c-6.3-4.1-9.6,4.5-9.1,10.3c2.1-4.9,3.8-4.5,5.5-4.4c1,0,2.1-0.4,3.2-1.3c0.6-0.6,1.5-2.2,1.5-3.1c3,3.6-3.2,5.5-3.9,5.7c3.1-0.1,6.3-0.8,9.5-2.1c-2.8,2.3-5.4,2.7-8.5,3c0.5,0.2,1,0.5,1.5,0.8c-5.1-0.4-7.7,5-7.4,9.4c2.7-3.3,10.2-1.2,8.8-7.8c4.1,4.5-1.5,5.7-4.9,7c2,1.6,2.7-0.1,4.9-0.5c2.2-0.4,4-1.4,3.2-4.2l1.2,1.4c1.4-0.4,2.7-0.3,4,0.2c-1.7,0.1-3.4,1-4.6,2c1.4,0.6,2.5,0.9,3.1,1.7c-5.3-1.5-14,0.8-11.5,7.6c3.8-3.7,9,0.8,12.2-6.4c0.5,2.2-0.7,3.9-2.1,4.4c3,2.5,8.2,2,8.6-1.3c0.5,1.9-0.4,3.2-1.7,3.9c1.2,0.2,3,0.7,3.9,1.8c2.7,3.6,6.4,5.4,7.3-2c0.3,2.9,1.5,4.2,3.7,5.1c4.1,6.7-3.6,12.6,14.3,17.5c1.6,2.2,3.5,4,6.1,4.4c-0.3-0.5-1.5-2.4-0.9-3.7c0.5,0.7,1.2,1,2,1c7-1.3,28.5-3.5,35.9-2.8c6.1,0.5,12.7,0.9,21.4-3c-5.5,4.5-11.9,6.2-20,5.2c-6.5-0.8-30,0.4-37.3,2.5c0.3,1,0.8,1.9,1.8,2.7c-4.4,0-9.2-2.7-13.2-6c-0.1,12,3,23.6,13.2,30.8c9,3.5,15.3,4.4,20,7.3c13.2,8,15.3,16.8,37.1,26.9c14.9,8.9,13,19.8,18.5,33.5c1.1,2.8,4.1,5.2,5.5,7.9c9.8,19.9,20.2,31.4,39.7,39.6l3.4,25c1,9.8-5.5,3.8-8.4,9.4c-5.1-0.3-9.6,6.1-5.5,9.3c0.5-3.5,0.4-7.6,5.4-7c-3.3,1.2-4.9,4.4-2.8,9.2c1.8-5.3,9.7,2.4,6.2-8c3.4,1.4,2.4,4,2,6.9c7.7,1.7,1-11.8,9.7-13c2.4-0.4,3.2-2.1,3.1-4.7c4.8,10.1-9.8,2.7-6.1,15.9c-0.2,3.9,0,8.4,1.9,9.2c0.6-1.7,1.1-4.6,2.7-6.1c2.1-2.5,2-5.2,0.4-7.9c2.7,0.6,2.5,4.1,2.5,5.8c1-0.9,1.6-1.8,1.8-2.9c3.9-2.4,5.7-5.8,5.3-11.7c-1.3-12-2.3-19.6-1.7-30.1c0.1-2.3,1.8-5.1-3.6-8.2c-5.9-4.5-9.7-10.9-12.7-18c-0.4,1.3-0.8,2.1-1.2,5c-1-6.9,0-10.2,0.6-17c2-15-3.1-29.9-12.1-41.8c-1.8-2.4-2.8-3.6-6-6.8c6.4,2.8,11.3,12.3,16.7,19.4c2.3,3,5.3,5.1,7.8,7.2c-2.7-1.2-5.4-2.6-7.6-4.6c0.3,1.2,0.4,2,1.2,3.2c15.4,11,55.3,10.1,67.1-18c7-16.6,4.7-39.4-7.3-57.3c-11.5-17.2-23.3-19.9-34-17.7c-7.7,2.7-12.8,7.1-16.9,13.9c0.8-3.5,3.9-6.9,7-10.3c-6.7,2-9.6,4.7-12,10.9c-0.6,1.7-1.3,3.6-2.1,5.3c-1.4,2.8-4.7,5.5-7.7-1.1c-2,4.4-1.1,7.3,4.3,8.7c-3.1,3.9-0.2,8.9,4.1,5.9c-4.2-1.3,1.8-6.7,3,0.3c0.6,3.9-2.6,6.1-5.3,7.4c4.8,2,7.5-2,8.4-6.3c0.4,2.4-0.4,6.5-2.9,7.6c-0.2,4.1,2.8,6.9,5.6,8.1c-0.6-1.7-0.6-3.3-0.4-4.9c2.7,14,17.6,11.6,15.1,21.6c-1,3.9-6,2.2-2.5-2.3c-4.6-1-7.6,6.8-3.2,9.3c1.1,0.6,2.8,0,4.2-0.9c-0.8,1.4-2.3,2-4.1,2.1c3.3,2.6,6.8,0,8.6-3c1.4-2.4,1.6-4.9,1.6-7c0.3-17.3-18.3-11.3-18.6-24.3c0.8,1.4,2.1,5.3,5,6.8c2.8,1.5,6.4,3.6,11.2-1.2c-0.4,1.8-1,3.6-3.9,4c5.9,4.6,11.5-8,5.1-11.4c-1.6-0.9-3.3-0.9-4.3-0.4c-1.7,0.8-2,2.1-0.8,3.4c3.6-3.9,6.3,1.7,2,4c-1.7,0.9-3.6,1.2-5.8,0.8c-2.5-0.5-5-1.8-6.4-7.3c-1.4-5.3,4.9-5.7,2.7,0.3c4.1,0.3,4.9-5.6-0.1-10.8c3.6-1,6-4.1,4.9-9c-2.8,5.6-5.8,4.5-7.9-2.6c-1.7,3.1-2.8,7.4-3.4,9.8c-1.1-14.1,12.2-30,29.1-22.4c7.8,3.5,13,9.7,16.9,15.7c4.5,6.9,7.1,14,8.5,22.4c1.1,11.9,1.5,23.3-3,31.1c-5.9,10-16.9,17.4-28.3,18.7c-9.7,1.1-19.9-2.1-29.3-13.6c-5-6.1-7.4-13.1-9.5-19c-1.4-3.7-4.6-6.4-6.8-8.2c-9.3-8.7-19-12.5-24.8-20c-3-4-4.3-9.2-5.4-16.2c-2.8-15.4-2-4-10.4-10.8c5.8-0.9,6.2-4.6,4.2-8.5c3.8,4.1,2.4,5.6-0.6,9c3.1,1.5,5.1-0.6,5.7-2.7c1-3.3-0.7-8-1-9.8c4.9,11.9,1.3,8.5,1.6,13.7c0.1,1.7,1.8,4.1,6.5,5.5c-1.6-2.5-2.9-5.1-3.4-8.3l0.9,0.5l1,0.5c-0.1-0.9-0.5-2.3-1.2-3.4c3.9,2.3,7.9-0.6,5.9-6c-2.6-4.3-8-11.4-9.7-15.2c-2-4.2-2.7-9.9,0.6-15.3c-3.6,10.8,2.6,17,8.1,25.5c4.4,0.7,7.7,0.7,9.5-0.5C692,250.1,688.9,248,687.1,244.8z"/><path fill-rule="evenodd" fill="#A68E6A" stroke="#000910" stroke-width="0.7087" stroke-miterlimit="22.9256" d="M558.3,296.4c2.9-3.5-2.3-10-9.4-11.8c0.2-4.7-2.9-8.1-8.8-7.1c-1.2,0.2-1.6,1-2.2,1.8c5.3,0.2,0.6,7.1,8.8,7.7c-3.4,1.2-5.9-0.2-7-4.8c-2.9,3.2-2.7,6.9,1.7,11.4c2.5,1.2,4.7-1.2,8.2-0.6c9.3,1.7,1.6,11.1,8.5,15.4c-5.3,0-4.7-7.3-5.1-11.2c-0.3-1-3.2-3.2-4.7-3.2c1.1,0.7,1.6,1.6,1.4,2.2c-0.7-1.1-7.9-3.1-11.4,0.6c3.2-0.7,5.2,4.1,10.6,2.7c-1.4,2.4-2.9,2.3-5.6,0.6c0.1,4,1.2,5.9,3.5,6.3c-0.2,5.4,2.2,9,6.1,11.7c2.3,2.7,4.5,5.1,6.4,2.6c3.1-4.7,1.6,3.5,7.9-1.6c-2.6,5,5.3,0.4,6.9-4.6c4-0.1,6.2-3.3,8.9-5.6l11.2-8.6c-6.5-3.6-9.8-9.7-11.8-16.9C578,287.6,565.2,299.7,558.3,296.4z"/><path fill-rule="evenodd" fill="#A68E6A" stroke="#000910" stroke-width="0.7087" stroke-miterlimit="22.9256" d="M635.5,332c-13-0.2-17.2,5.1-17.1,13.4c0.1,16.2,11.6,36.9,12.5,41.3c-1.8-3.2-4.4-0.6-8.9,1.7c-6.2,0.1-15.6,2-19.9-2.9c-2.7-3-7.2-2.6-11.1-1.2c-2.5-1.3-5.1-1.7-7.9-1.3c-3.6-3.2-10.6-1.2-10.2,4.4c4.6-2.3,4.8,4.6,9.6,1.3c-0.9,2.6-4,2.2-6.2,0.6c0.2,2,0.8,4.1,3.3,3.8c4.4-0.6,3.6-2.7,5.8-4c2.8-1.8,6.2,4.3,9.2,3.2c-1,2-3-1.5-5.6-2c-3.3-0.6-5.4,1.8-7,4.1c-0.7,1.3-0.5,2.5,0,3.7c0.5-0.6,1.1-1.2,2-1.4c1.4,0.1,2.2,0.3,3.3,1c1.7,1.1,3.8-1.5,3.9-3.9c1,3.7-1.5,6.5-5.9,4.5c0.7,3.7,4.8,4.4,9,1.7c0.1,2.2,1.9,4.8,3.5,4.6c10.2,9.7,10.8,3.4,13,3c5.1-0.9,11.3,0.6,17.5-1.6c10.3,1.8,16.4,1.4,15.2-8.1c0.8,2.3,2.4,4.4,1.2,6.8c9.6,0.4,11.3-6.8,6.5-18.9c-2.6-6.4-1.9-12.1,1.9-15.4c-4.7-0.5-6.2-1.8-7-3.2c4.8,3.7,13.4,0.9,22.9-3.3c-3.8-15.2-9.3-23.6-18.7-15.8C658.4,335,647.5,332.2,635.5,332z"/><path fill-rule="evenodd" fill="#8F5946" stroke="#000910" stroke-width="0.7087" stroke-miterlimit="22.9256" d="M624.9,210c2.8-1.1,0.9-8.5-1-9c-1.9-0.4-9.2,8.2-12.9,5.6c-2.7-1.9-5.4-1.7-2.5,1.6c2,2.3,7.3-0.1,10,0.1C621.2,208.5,623.5,210.6,624.9,210z"/><path fill-rule="evenodd" fill="#FFFFFF" stroke="#000910" stroke-width="0.7087" stroke-miterlimit="22.9256" d="M622.9,198.7c-0.3-0.4-0.9-1.1-1.9-1.3c-2.1-0.5-5.1-0.2-6.4,0.3l-0.2,1.7C615.5,198.8,621.6,198.7,622.9,198.7z"/><path fill-rule="evenodd" fill="#FFFFFF" stroke="#000910" stroke-width="0.7087" stroke-miterlimit="22.9256" d="M613.5,199.8l0.2-2c-2-0.1-4.5-0.6-5.9-1.2c0.3,1.1,1.2,2.1,2.8,2.3c0,0.9,0.6,1.6,1.3,2.4C612.4,200.4,612.5,200.3,613.5,199.8z"/><path fill-rule="evenodd" fill="#A68E6A" stroke="#0F1823" stroke-width="0.5669" stroke-miterlimit="22.9256" d="M576.3,397.1c0.6-1.9,1.3-3,2.5-2.7c-0.8-0.7-2-1.3-2.6-2C575.4,394.5,575.7,396.2,576.3,397.1z"/><path fill-rule="evenodd" fill="#000910" stroke="#000910" stroke-width="0.7087" stroke-miterlimit="22.9256" d="M620.8,186.3c4.2,0.1,5.6,4.1,5.3,7.3c0,0.4,4.7,2.9,5.5,7.6c-2.4-4.2-4.4-4.8-6.9-7c-3,2.2-4.5,1.6-7.8,0.9c3.7-0.2,2.8,0,4.8-0.6c5-1.6,3.1-6.4-1.7-5.1c-0.8,0.2-1.6,1.1-2.7,1.6c-0.8,0.4-2.8,0.8-3.7,0c4.3,0.1,5-3.4,8.8-3C622.3,187.7,621.7,187,620.8,186.3z"/><path fill-rule="evenodd" fill="#000910" stroke="#000910" stroke-width="0.7087" stroke-miterlimit="22.9256" d="M628.2,192.5c-0.9-4-2.2-7.3-4.1-8.3c2.8-0.1,3.7,2.8,4.5,5.9c0.3,1.3,1.1,3.3,6,4.9c1.3,0.4,2.2,3.6,2,4.8C634.7,194.3,630.6,196.6,628.2,192.5z"/><path fill-rule="evenodd" fill="#000910" stroke="#000910" stroke-width="0.7087" stroke-miterlimit="22.9256" d="M644.2,243.9c-5-10.2-0.4-13.5,6.1-21.1c2.7-4.1-1.2-7.1-5.1-10.5c4.2,1.2,9.6,5.7,6.5,11.7c-2.7,4.5-6.3,6.9-7.4,9.4C642.5,236.8,643.9,239.8,644.2,243.9z"/><path fill-rule="evenodd" fill="#000910" stroke="#000910" stroke-width="0.7087" stroke-miterlimit="22.9256" d="M561.2,308.4c0.7-2.6,2.9-4.8,10.4-5.2l-1.8,2C566.1,305.2,563.4,306.5,561.2,308.4z"/><path fill-rule="evenodd" fill="#000910" stroke="#000910" stroke-width="0.7087" stroke-miterlimit="22.9256" d="M576.5,308.4c3.6-3.2,1.7-3.7,7.7-7.7c-2.7,2.5-4,6.1-7.2,9.6c-3,3.2-6.8,4.3-10.5,1.5C570.1,312.5,573.1,311.4,576.5,308.4z"/><path fill-rule="evenodd" fill="#000910" stroke="#000910" stroke-width="0.7087" stroke-miterlimit="22.9256" d="M649.6,399.5c1.2-13.7-13.7-9.2-8.6-30.9c0.9,14.5,2.5,7,7.9,20.8C649.9,392.1,650.6,397.5,649.6,399.5z"/><path fill-rule="evenodd" fill="#000910" stroke="#000910" stroke-width="0.7087" stroke-miterlimit="22.9256" d="M735.4,412.3c-0.1,6.2-9,2.6-10.7-6.6c-3.3-2.5-4.2-4.3-6.4-9.1l8.1,9.1C728.5,411,732.3,415.2,735.4,412.3z"/><path fill-rule="evenodd" fill="#000910" stroke="#000910" stroke-width="0.7087" stroke-miterlimit="22.9256" d="M637.3,400.1c-1.7,1.5-6.5,1.8-11.1,1.5c-3-0.2-5.9,0.6-8,1.2c1.8-3.1,6.6-2.9,10.6-2.1c1.2,0.2,2.9-0.1,3.9-0.1c1.2-3,4-4.9,7.7-4.3c-2,0.7-4.3,2.2-5.2,4L637.3,400.1z"/><path fill-rule="evenodd" fill="none" stroke="#000910" stroke-width="2.126" stroke-miterlimit="22.9256" d="M658.4,202.7c4-2.3,3.7-6.4,1.1-11.5l8.1,2.8l-4.7-5.6l8.3,0.5c-7.3-4.9-1.2-4.8,10.6-2.5 M652.9,180.9c1.8-2.4,6.5-3.2,11.2-1l18.2,6.9c6.5,2.8,8.1,9.9,3.3,16l-6.5,5.4l-17.8,0.5"/><path fill-rule="evenodd" fill="none" stroke="#000910" stroke-width="2.126" stroke-miterlimit="22.9256" d="M638,178.1c-3.9,1.1-7.1,2.4-3.1,4.1l5.9,2"/><path fill-rule="evenodd" fill="none" stroke="#000910" stroke-width="1.4173" stroke-miterlimit="22.9256" d="M634.9,186.3l-1.2,0.9c1.3,1.5,2.9,2.2,5.6,2.1"/><path fill-rule="evenodd" fill="#000910" stroke="#000910" stroke-width="0.5669" stroke-miterlimit="22.9256" d="M639.6,184.2c-1.7,2.8-3.3,3.2-4.4,2.5c-1.3-0.8-2-3.1-1.2-4.6L639.6,184.2z"/><path fill-rule="evenodd" fill="#000910" stroke="#000910" stroke-width="0.7087" stroke-miterlimit="22.9256" d="M666.3,258.9c-0.9,2.3-1.1,4-0.6,6.5c-4.5-7.3-9.8-9.1-16.4-8.7c0.7,2.1,2.5,3.7,4.5,5.3c-3.4,0.5-8.1-0.9-10.5-5.2c2.3,1.9,4.5,3.3,7.4,4.1c-2.2-2.1-2.4-4.2-2.3-6.5c5.8-0.3,11.2,1.3,16,7.2C664.3,260.3,664.9,259.4,666.3,258.9z"/></g><path fill-rule="evenodd" fill="#BE2E21" d="M403.2,259.2c-5.9,8.4-10.2,15.9-12.9,22.3c-2.7,6.5-4.1,12.4-4.1,17.7c0,5.7,2,10.3,6.1,13.7c4.1,3.5,9.5,5.2,16.1,5.2c4.4,0,9-1.4,13.9-4.2c4.8-2.8,9.2-6.3,13.2-10.6c3.9-4.3,7.2-9,9.8-14.2c2.6-5.2,3.9-10.2,3.9-15.1c0-4-1-7.1-3-9.3c-2-2.2-4.9-3.3-8.7-3.3c-4,0-8,1-11.9,2.9c-3.9,1.9-7.5,4.5-10.6,7.7c-3.2,3.2-5.7,6.7-7.6,10.7c-1.9,4-2.9,8-2.9,12.1c0,1.8,0.3,3.4,0.9,4.7c0.1,0.2,0.2,0.4,0.2,0.6c0,0.5-0.3,0.8-0.8,0.8c-1.6,0-2.4-2.5-2.4-7.4c0-4.3,1-8.5,3-12.5c2-4,4.7-7.7,8-10.8c3.3-3.2,7.1-5.7,11.4-7.7c4.3-1.9,8.6-2.9,13.2-2.9c5.5,0,9.8,1.7,12.9,5c3.2,3.3,4.7,7.9,4.7,13.6c0,9.6-4.2,18.2-12.6,26c-5.4,5-11.2,8.9-17.7,11.5c-6.4,2.6-12.9,3.9-19.5,3.9c-4,0-7.6-0.8-10.9-2.3c-3.3-1.5-6.1-3.7-8.5-6.5c-2.4-2.8-4.3-6.1-5.6-9.9c-1.3-3.8-2-8.1-2-12.7c0-5.5,0.8-10.6,2.4-15.4c1.6-4.8,4.3-9.9,8-15.4c-7.6-2-13.5-5.1-17.7-9.4c-4.2-4.3-6.3-9.2-6.3-14.9c0-4.1,1-7.9,3-11.5c2-3.6,4.8-6.7,8.3-9.3c3.5-2.6,7.6-4.7,12.4-6.2c4.7-1.5,9.9-2.3,15.5-2.3c8.4,0,15.5,1.9,21.1,5.7c1.4,0.8,2.5,1.8,3.4,2.9c0.9,1.1,1.3,2,1.3,2.8c0,0.5-0.2,0.8-0.6,0.8c-0.3,0-0.7-0.2-1.1-0.6c-5.5-6.4-13.2-9.6-23.3-9.6c-4.6,0-9,0.8-13,2.4c-4,1.6-7.6,3.7-10.6,6.4c-3,2.7-5.4,5.8-7.1,9.4c-1.7,3.6-2.6,7.4-2.6,11.5c0,5,1.5,9.2,4.5,12.5c3,3.3,7.6,5.9,14,8c5-6.7,10.7-12.6,17-17.7c6.3-5.1,14-10,23.2-14.6c3.8-1.9,7.6-3.6,11.4-5.2c3.8-1.6,7.4-2.9,10.7-4c3.4-1.1,6.4-2,9.2-2.6c2.8-0.6,5.1-0.9,7-0.9c2.7,0,5,0.8,6.7,2.4c1.7,1.6,2.6,3.6,2.6,6c0,3.3-1,6.5-3.1,9.8c-2,3.3-4.9,6.4-8.6,9.4c-3.7,3-8.1,5.8-13.2,8.4c-5.1,2.6-10.7,4.8-16.9,6.5c-5.8,1.7-11.5,3-17,3.9C413.5,258.4,408.2,259,403.2,259.2L403.2,259.2z M404.3,257.6c0.5-0.1,0.9-0.2,1-0.2c0.2,0,0.6,0,1.2,0c5.5-0.4,11.5-1.6,18-3.6c6.5-2,12.8-4.6,18.8-7.7c4.4-2.2,8.5-4.6,12.3-7.3c3.8-2.6,7.1-5.3,9.9-7.9c2.8-2.6,5-5.1,6.6-7.5c1.6-2.4,2.4-4.4,2.4-6.2c0-1.3-0.6-2.3-1.7-3.2c-1.1-0.8-2.5-1.3-4.2-1.3c-4.2,0-9,1.2-14.4,3.5c-5.4,2.3-11,5.5-16.8,9.5c-5.8,4-11.5,8.7-17.3,14.2C414.4,245.4,409.1,251.3,404.3,257.6z"/><path fill-rule="evenodd" fill="none" stroke="#BE2E21" stroke-width="0.216" stroke-miterlimit="22.9256" d="M403.2,259.2c-5.9,8.4-10.2,15.9-12.9,22.3c-2.7,6.5-4.1,12.4-4.1,17.7c0,5.7,2,10.3,6.1,13.7c4.1,3.5,9.5,5.2,16.1,5.2c4.4,0,9-1.4,13.9-4.2c4.8-2.8,9.2-6.3,13.2-10.6c3.9-4.3,7.2-9,9.8-14.2c2.6-5.2,3.9-10.2,3.9-15.1c0-4-1-7.1-3-9.3c-2-2.2-4.9-3.3-8.7-3.3c-4,0-8,1-11.9,2.9c-3.9,1.9-7.5,4.5-10.6,7.7c-3.2,3.2-5.7,6.7-7.6,10.7c-1.9,4-2.9,8-2.9,12.1c0,1.8,0.3,3.4,0.9,4.7c0.1,0.2,0.2,0.4,0.2,0.6c0,0.5-0.3,0.8-0.8,0.8c-1.6,0-2.4-2.5-2.4-7.4c0-4.3,1-8.5,3-12.5c2-4,4.7-7.7,8-10.8c3.3-3.2,7.1-5.7,11.4-7.7c4.3-1.9,8.6-2.9,13.2-2.9c5.5,0,9.8,1.7,12.9,5c3.2,3.3,4.7,7.9,4.7,13.6c0,9.6-4.2,18.2-12.6,26c-5.4,5-11.2,8.9-17.7,11.5c-6.4,2.6-12.9,3.9-19.5,3.9c-4,0-7.6-0.8-10.9-2.3c-3.3-1.5-6.1-3.7-8.5-6.5c-2.4-2.8-4.3-6.1-5.6-9.9c-1.3-3.8-2-8.1-2-12.7c0-5.5,0.8-10.6,2.4-15.4c1.6-4.8,4.3-9.9,8-15.4c-7.6-2-13.5-5.1-17.7-9.4c-4.2-4.3-6.3-9.2-6.3-14.9c0-4.1,1-7.9,3-11.5c2-3.6,4.8-6.7,8.3-9.3c3.5-2.6,7.6-4.7,12.4-6.2c4.7-1.5,9.9-2.3,15.5-2.3c8.4,0,15.5,1.9,21.1,5.7c1.4,0.8,2.5,1.8,3.4,2.9c0.9,1.1,1.3,2,1.3,2.8c0,0.5-0.2,0.8-0.6,0.8c-0.3,0-0.7-0.2-1.1-0.6c-5.5-6.4-13.2-9.6-23.3-9.6c-4.6,0-9,0.8-13,2.4c-4,1.6-7.6,3.7-10.6,6.4c-3,2.7-5.4,5.8-7.1,9.4c-1.7,3.6-2.6,7.4-2.6,11.5c0,5,1.5,9.2,4.5,12.5c3,3.3,7.6,5.9,14,8c5-6.7,10.7-12.6,17-17.7c6.3-5.1,14-10,23.2-14.6c3.8-1.9,7.6-3.6,11.4-5.2c3.8-1.6,7.4-2.9,10.7-4c3.4-1.1,6.4-2,9.2-2.6c2.8-0.6,5.1-0.9,7-0.9c2.7,0,5,0.8,6.7,2.4c1.7,1.6,2.6,3.6,2.6,6c0,3.3-1,6.5-3.1,9.8c-2,3.3-4.9,6.4-8.6,9.4c-3.7,3-8.1,5.8-13.2,8.4c-5.1,2.6-10.7,4.8-16.9,6.5c-5.8,1.7-11.5,3-17,3.9C413.5,258.4,408.2,259,403.2,259.2L403.2,259.2z M404.3,257.6c0.5-0.1,0.9-0.2,1-0.2c0.2,0,0.6,0,1.2,0c5.5-0.4,11.5-1.6,18-3.6c6.5-2,12.8-4.6,18.8-7.7c4.4-2.2,8.5-4.6,12.3-7.3c3.8-2.6,7.1-5.3,9.9-7.9c2.8-2.6,5-5.1,6.6-7.5c1.6-2.4,2.4-4.4,2.4-6.2c0-1.3-0.6-2.3-1.7-3.2c-1.1-0.8-2.5-1.3-4.2-1.3c-4.2,0-9,1.2-14.4,3.5c-5.4,2.3-11,5.5-16.8,9.5c-5.8,4-11.5,8.7-17.3,14.2C414.4,245.4,409.1,251.3,404.3,257.6z"/><g><path fill-rule="evenodd" fill="#A68E6A" stroke="#000910" stroke-width="2.126" stroke-miterlimit="22.9256" d="M414.1,421.7c-9.1-1.3-5.1,15.9-17.3,6.8c-4.5,6.9,5.1,17.6,14,8.6c2.8,10.7,14.5,9.1,15.9,0.4c8.5,7.7,19.9-2.3,14.2-9.1c-10.9,7.6-9.8-8-15.8-7c-2.6-0.4-4.9-0.8-7.3-0.6C416.4,420.9,415.1,421.2,414.1,421.7z"/><path fill-rule="evenodd" fill="none" stroke="#000910" stroke-width="2.126" stroke-miterlimit="22.9256" d="M415.7,421.2c-3.2,2.9-4.6,9.7-5,15.9"/><path fill-rule="evenodd" fill="none" stroke="#000910" stroke-width="2.126" stroke-miterlimit="22.9256" d="M422,421.3c3.3,4.5,4.5,10.7,4.6,16.2"/><path fill-rule="evenodd" fill="none" stroke="#000910" stroke-width="2.126" stroke-miterlimit="22.9256" d="M411.9,428.7c1.7,16.7,14.7,11.8,13.5,0"/><path fill-rule="evenodd" fill="none" stroke="#000910" stroke-width="2.126" stroke-miterlimit="22.9256" d="M396.7,428.5c2.3,6.6,5.1,7.9,8,7.5c1.9-0.3,3.6-1.7,4.6-3.9c1.4-2.8,2.4-7.4,5.6-10.5"/><path fill-rule="evenodd" fill="#A68E6A" stroke="#000910" stroke-width="2.126" stroke-miterlimit="22.9256" d="M424.7,420.8c0,0.1-3.3,0.3-5.6-0.1c-2.1-0.4-3.4,0.5-3.9,0.5c-4.5-0.2-3.9-4.1-1.1-6.6c2.4-2.2,6.3-2.5,8.4-1.1C423.6,414.3,426.6,417.8,424.7,420.8z"/><path fill-rule="evenodd" fill="none" stroke="#000910" stroke-width="2.126" stroke-miterlimit="22.9256" d="M441.2,428.5c-2.3,6.6-5.1,7.9-8,7.5c-1.9-0.3-3.6-1.7-4.6-3.9c-1.4-2.8-2.4-7.4-5.6-10.5"/><path fill-rule="evenodd" fill="none" stroke="#000910" stroke-width="2.126" stroke-miterlimit="22.9256" d="M440.5,428.5c-2.3,6.6-5.1,7.9-8,7.5c-1.9-0.3-3.6-1.7-4.6-3.9c-1.4-2.8-2.4-7.4-5.6-10.5"/><path fill-rule="evenodd" fill="#A68E6A" stroke="#000910" stroke-width="2.126" stroke-miterlimit="22.9256" d="M427.4,401.1c-0.1,0-0.2-0.1-0.3-0.1C427.2,401,427.3,401.1,427.4,401.1L427.4,401.1z M424,392.7c-0.1,0.1-0.2,0.2-0.3,0.3C423.8,392.9,423.9,392.8,424,392.7L424,392.7z M413.6,393.1c-6.4-6.5-13-4.7-11.5,2.3c-2.4,4.5,0.2,7.2,5.9,6.1c-3.3,2.6-3.8,5.5,0.1,7.4c0.7,3.8,3.7,4.8,6.3,3.4c0.2-0.1,0.4-0.2,0.5-0.3c2.1-1.4,3.9-4.5,3.9-8.9c0.7,10.1,8.4,13.3,10.8,5.7c1.6-1.2,2.3-2.9,1.8-4.1c-0.6-1.6-3.2-2.9-4-3.4c1.2,0.5,4.8,1,6.9,0c2.7-1.3,3.8-4.4-0.7-8.2c0.3-5.5-3.7-6.1-9.6-0.2c3.2-3.4,4-8.9-0.3-8c-1.7-5.4-6.9-6.1-9.9-0.4C409.2,384.9,409.2,387.9,413.6,393.1L413.6,393.1z M414.9,397.2c0-2.2,1.8-4,4-4c2.2,0,4,1.8,4,4c0,2.2-1.8,4-4,4C416.7,401.3,414.9,399.5,414.9,397.2z"/></g><path fill-rule="evenodd" fill="#A68E6A" stroke="#000910" stroke-width="2.8346" stroke-miterlimit="22.9256" d="M334.2,263.9c-1-47.5,37.2-86.8,85.3-87.8c48.2-1,88.1,36.6,89.1,84.1c1,47.5-37.2,86.8-85.3,87.8C375.2,349,335.3,311.4,334.2,263.9L334.2,263.9z M306.5,264.5c1.4,63.5,54,113.8,117.4,112.4S537.8,323,536.4,259.5C535,196,482.4,145.7,419,147.1C355.5,148.5,305.2,201,306.5,264.5z"/></svg>
